<svg aria-hidden="true" style="position: absolute; width: 0; height: 0; overflow: hidden;" version="1.1" xmlns="http://www.w3.org/2000/svg" xmlns:xlink="http://www.w3.org/1999/xlink">
<defs>
<symbol id="icon-Ellipse-5" viewBox="0 0 32 32">
<path fill="#fff" style="fill: var(--color1, #fff)" d="M32 16c0 4.418-1.791 8.418-4.686 11.314s-6.895 4.686-11.314 4.686-8.418-1.791-11.314-4.686c-2.895-2.895-4.686-6.895-4.686-11.314s1.791-8.418 4.686-11.314 6.895-4.686 11.314-4.686c4.418 0 8.418 1.791 11.314 4.686s4.686 6.895 4.686 11.314z"></path>
<path fill="#afb1b8" style="fill: var(--color2, #afb1b8)" d="M23.273 11.49c-0.541 0.237-1.117 0.394-1.718 0.471 0.618-0.369 1.090-0.949 1.312-1.648-0.576 0.344-1.213 0.586-1.891 0.722-0.547-0.583-1.327-0.944-2.178-0.944-1.651 0-2.98 1.34-2.98 2.983 0 0.236 0.020 0.464 0.069 0.68-2.479-0.121-4.673-1.309-6.146-3.119-0.257 0.446-0.408 0.957-0.408 1.507 0 1.033 0.532 1.948 1.325 2.478-0.479-0.009-0.949-0.148-1.347-0.367 0 0.009 0 0.021 0 0.033 0 1.449 1.034 2.653 2.389 2.93-0.243 0.066-0.507 0.098-0.782 0.098-0.191 0-0.384-0.011-0.565-0.051 0.386 1.181 1.483 2.049 2.786 2.077-1.015 0.794-2.303 1.272-3.697 1.272-0.245 0-0.479-0.011-0.714-0.041 1.321 0.852 2.886 1.338 4.575 1.338 5.487 0 8.487-4.545 8.487-8.485 0-0.132-0.005-0.259-0.011-0.385 0.592-0.42 1.089-0.944 1.495-1.548z"></path>
</symbol>
<symbol id="icon-Ellipse-4" viewBox="0 0 32 32">
<path fill="#fff" style="fill: var(--color1, #fff)" d="M32 16c0 4.418-1.791 8.418-4.686 11.314s-6.895 4.686-11.314 4.686-8.418-1.791-11.314-4.686c-2.895-2.895-4.686-6.895-4.686-11.314s1.791-8.418 4.686-11.314 6.895-4.686 11.314-4.686c4.418 0 8.418 1.791 11.314 4.686s4.686 6.895 4.686 11.314z"></path>
<path fill="#afb1b8" style="fill: var(--color2, #afb1b8)" d="M18.422 11.142h1.328v-2.313c-0.229-0.031-1.017-0.102-1.935-0.102-1.915 0-3.226 1.204-3.226 3.418v2.037h-2.113v2.585h2.113v6.505h2.59v-6.505h2.027l0.322-2.585h-2.35v-1.781c0.001-0.747 0.202-1.259 1.243-1.259v0z"></path>
</symbol>
<symbol id="icon-Ellipse-2" viewBox="0 0 32 32">
<path fill="#fff" style="fill: var(--color1, #fff)" d="M32 16c0 4.418-1.791 8.418-4.686 11.314s-6.895 4.686-11.314 4.686-8.418-1.791-11.314-4.686c-2.895-2.895-4.686-6.895-4.686-11.314s1.791-8.418 4.686-11.314 6.895-4.686 11.314-4.686c4.418 0 8.418 1.791 11.314 4.686s4.686 6.895 4.686 11.314z"></path>
<path fill="#afb1b8" style="fill: var(--color2, #afb1b8)" d="M23.258 13.004c-0.034-0.773-0.159-1.304-0.338-1.765-0.185-0.489-0.469-0.926-0.841-1.29-0.364-0.369-0.804-0.656-1.287-0.838-0.463-0.179-0.992-0.304-1.764-0.338-0.779-0.037-1.026-0.046-3.001-0.046s-2.222 0.009-2.998 0.043c-0.773 0.034-1.304 0.159-1.764 0.338-0.489 0.185-0.926 0.469-1.29 0.841-0.369 0.364-0.656 0.804-0.838 1.287-0.179 0.463-0.304 0.992-0.338 1.764-0.037 0.779-0.045 1.026-0.045 3.001s0.008 2.222 0.043 2.998c0.034 0.773 0.159 1.304 0.338 1.765 0.185 0.489 0.472 0.926 0.841 1.29 0.364 0.369 0.804 0.656 1.287 0.838 0.463 0.179 0.992 0.304 1.765 0.338 0.776 0.034 1.023 0.043 2.998 0.043s2.222-0.008 2.998-0.043c0.773-0.034 1.304-0.159 1.764-0.338 0.978-0.378 1.75-1.151 2.128-2.128 0.179-0.463 0.304-0.992 0.338-1.765 0.034-0.776 0.043-1.023 0.043-2.998s-0.003-2.222-0.037-2.998zM21.949 18.942c-0.031 0.71-0.151 1.094-0.25 1.35-0.244 0.634-0.747 1.137-1.381 1.381-0.256 0.099-0.642 0.219-1.35 0.25-0.767 0.034-0.997 0.043-2.938 0.043s-2.174-0.008-2.938-0.043c-0.71-0.031-1.094-0.15-1.35-0.25-0.315-0.116-0.602-0.301-0.835-0.543-0.242-0.236-0.426-0.52-0.543-0.835-0.099-0.256-0.219-0.642-0.25-1.35-0.034-0.767-0.043-0.997-0.043-2.938s0.008-2.174 0.043-2.938c0.031-0.71 0.151-1.094 0.25-1.35 0.117-0.315 0.301-0.602 0.546-0.835 0.236-0.242 0.52-0.426 0.835-0.543 0.256-0.099 0.642-0.219 1.35-0.25 0.767-0.034 0.997-0.043 2.938-0.043 1.944 0 2.174 0.008 2.938 0.043 0.71 0.031 1.094 0.151 1.35 0.25 0.315 0.116 0.602 0.301 0.835 0.543 0.241 0.236 0.426 0.52 0.543 0.835 0.099 0.256 0.219 0.642 0.25 1.35 0.034 0.767 0.043 0.997 0.043 2.938s-0.009 2.168-0.043 2.935z"></path>
<path fill="#afb1b8" style="fill: var(--color2, #afb1b8)" d="M16.027 12.265c-2.063 0-3.736 1.674-3.736 3.736s1.674 3.736 3.736 3.736c2.063 0 3.737-1.674 3.737-3.736s-1.674-3.736-3.737-3.736zM16.027 18.425c-1.338 0-2.424-1.085-2.424-2.424s1.086-2.424 2.424-2.424c1.338 0 2.424 1.085 2.424 2.424s-1.085 2.424-2.424 2.424v0z"></path>
<path fill="#afb1b8" style="fill: var(--color2, #afb1b8)" d="M20.784 12.117c0 0.482-0.391 0.872-0.872 0.872s-0.872-0.391-0.872-0.872c0-0.482 0.391-0.872 0.872-0.872s0.872 0.39 0.872 0.872v0z"></path>
</symbol>
<symbol id="icon-Ellipse-1" viewBox="0 0 32 32">
<path fill="#fff" style="fill: var(--color1, #fff)" d="M32 16c0 4.418-1.791 8.418-4.686 11.314s-6.895 4.686-11.314 4.686-8.418-1.791-11.314-4.686c-2.895-2.895-4.686-6.895-4.686-11.314s1.791-8.418 4.686-11.314 6.895-4.686 11.314-4.686c4.418 0 8.418 1.791 11.314 4.686s4.686 6.895 4.686 11.314z"></path>
<path fill="#afb1b8" style="fill: var(--color2, #afb1b8)" d="M23.269 23.273v-0.001h0.004v-5.335c0-2.61-0.562-4.62-3.613-4.62-1.467 0-2.451 0.805-2.853 1.568h-0.042v-1.324h-2.893v9.711h3.012v-4.809c0-1.266 0.24-2.49 1.808-2.49 1.545 0 1.568 1.445 1.568 2.572v4.728h3.009z"></path>
<path fill="#afb1b8" style="fill: var(--color2, #afb1b8)" d="M8.967 13.562h3.016v9.711h-3.016v-9.711z"></path>
<path fill="#afb1b8" style="fill: var(--color2, #afb1b8)" d="M10.474 8.727c-0.964 0-1.747 0.782-1.747 1.747s0.782 1.763 1.747 1.763c0.964 0 1.747-0.799 1.747-1.763s-0.783-1.747-1.747-1.747v0z"></path>
</symbol>
<symbol id="icon-Client-6" viewBox="0 0 59 32">
<path fill="#afb1b8" style="fill: var(--color2, #afb1b8)" d="M29.713 15.098c-0.154-0.205-0.228-0.448-0.21-0.692v-1.003c0-0.307 0.070-0.541 0.209-0.701s0.379-0.239 0.718-0.239c0.319 0 0.546 0.068 0.679 0.204 0.146 0.174 0.217 0.386 0.201 0.6v0.236h-0.571v-0.239c0.002-0.078-0.003-0.156-0.017-0.234-0.008-0.053-0.037-0.102-0.082-0.139-0.059-0.040-0.132-0.059-0.207-0.054-0.078-0.005-0.156 0.015-0.217 0.057-0.050 0.041-0.083 0.095-0.095 0.153-0.016 0.082-0.024 0.165-0.022 0.248v1.217c-0.009 0.117 0.016 0.235 0.073 0.342 0.028 0.036 0.068 0.065 0.114 0.083s0.097 0.025 0.147 0.019c0.073 0.005 0.146-0.015 0.202-0.055 0.047-0.040 0.076-0.092 0.085-0.148 0.013-0.081 0.019-0.162 0.018-0.244v-0.247h0.571v0.225c0.016 0.223-0.053 0.445-0.197 0.63-0.131 0.149-0.355 0.223-0.683 0.223s-0.577-0.080-0.717-0.245z"></path>
<path fill="#afb1b8" style="fill: var(--color2, #afb1b8)" d="M32.089 15.109c-0.144-0.156-0.216-0.384-0.216-0.685v-1.055c0-0.298 0.072-0.523 0.216-0.676s0.385-0.229 0.723-0.229c0.336 0 0.575 0.076 0.72 0.229s0.217 0.379 0.217 0.676v1.055c0 0.298-0.073 0.526-0.22 0.684s-0.385 0.236-0.717 0.236c-0.332 0-0.578-0.080-0.723-0.235zM33.078 14.856c0.052-0.098 0.075-0.205 0.069-0.312v-1.292c0.007-0.105-0.017-0.21-0.067-0.306-0.029-0.037-0.069-0.066-0.117-0.084s-0.099-0.024-0.151-0.018c-0.051-0.006-0.103 0-0.151 0.018s-0.088 0.047-0.117 0.084c-0.052 0.095-0.075 0.201-0.069 0.306v1.298c-0.007 0.107 0.016 0.215 0.069 0.312 0.033 0.033 0.074 0.059 0.12 0.077s0.096 0.027 0.147 0.027c0.051 0 0.101-0.009 0.147-0.027s0.087-0.044 0.12-0.077v-0.006z"></path>
<path fill="#afb1b8" style="fill: var(--color2, #afb1b8)" d="M34.436 12.495h0.614l0.462 1.946 0.473-1.946h0.598l0.061 2.809h-0.442l-0.047-1.952-0.456 1.952h-0.354l-0.473-1.96-0.044 1.96h-0.447l0.056-2.809z"></path>
<path fill="#afb1b8" style="fill: var(--color2, #afb1b8)" d="M37.332 12.495h0.957c0.551 0 0.827 0.266 0.827 0.798 0 0.509-0.29 0.764-0.871 0.763h-0.326v1.249h-0.591l0.003-2.809zM38.15 13.696c0.058 0.006 0.118 0.002 0.174-0.014s0.107-0.041 0.151-0.075c0.068-0.095 0.098-0.206 0.085-0.317 0.003-0.086-0.007-0.171-0.029-0.255-0.008-0.028-0.023-0.054-0.043-0.077s-0.046-0.042-0.074-0.057c-0.082-0.034-0.173-0.049-0.264-0.045h-0.229v0.839h0.229z"></path>
<path fill="#afb1b8" style="fill: var(--color2, #afb1b8)" d="M39.968 12.495h0.635l0.651 2.809h-0.551l-0.129-0.648h-0.566l-0.133 0.648h-0.559l0.651-2.809zM40.511 14.331l-0.221-1.179-0.221 1.179h0.442z"></path>
<path fill="#afb1b8" style="fill: var(--color2, #afb1b8)" d="M41.78 12.495h0.414l0.792 1.603v-1.603h0.49v2.809h-0.393l-0.797-1.673v1.673h-0.507l0.001-2.809z"></path>
<path fill="#afb1b8" style="fill: var(--color2, #afb1b8)" d="M44.624 14.233l-0.658-1.734h0.554l0.402 1.114 0.377-1.114h0.543l-0.65 1.734v1.071h-0.567v-1.071z"></path>
<path fill="#afb1b8" style="fill: var(--color2, #afb1b8)" d="M30.625 16.533v0.147h-0.482v1.142h-0.202v-1.142h-0.484v-0.147h1.169z"></path>
<path fill="#afb1b8" style="fill: var(--color2, #afb1b8)" d="M32.137 17.821h-0.156c-0.016 0.001-0.031-0.003-0.044-0.012-0.012-0.007-0.021-0.018-0.026-0.030l-0.139-0.306h-0.669l-0.139 0.306c-0.004 0.013-0.011 0.025-0.021 0.035-0.012 0.009-0.028 0.013-0.044 0.012h-0.156l0.591-1.288h0.206l0.598 1.283zM31.158 17.343h0.558l-0.236-0.524c-0.017-0.040-0.032-0.080-0.044-0.121-0.008 0.024-0.015 0.048-0.022 0.068l-0.021 0.054-0.234 0.523z"></path>
<path fill="#afb1b8" style="fill: var(--color2, #afb1b8)" d="M33.155 17.695c0.037 0.002 0.074 0.002 0.111 0 0.032-0.003 0.064-0.008 0.095-0.015 0.029-0.006 0.057-0.014 0.085-0.023 0.026-0.009 0.052-0.020 0.079-0.032v-0.29h-0.236c-0.006 0-0.012-0-0.017-0.002s-0.011-0.004-0.015-0.008c-0.004-0.003-0.007-0.006-0.009-0.011s-0.003-0.008-0.003-0.013v-0.099h0.458v0.494c-0.037 0.023-0.077 0.044-0.118 0.061s-0.086 0.033-0.131 0.044c-0.048 0.012-0.098 0.021-0.148 0.027-0.057 0.006-0.115 0.008-0.172 0.008-0.102 0.001-0.203-0.015-0.298-0.048-0.088-0.031-0.169-0.077-0.236-0.135-0.066-0.059-0.118-0.128-0.152-0.204-0.037-0.085-0.056-0.176-0.054-0.267-0.001-0.092 0.017-0.183 0.053-0.269 0.034-0.076 0.086-0.146 0.152-0.204s0.148-0.103 0.236-0.134c0.101-0.033 0.209-0.049 0.317-0.048 0.055-0 0.11 0.004 0.164 0.011 0.048 0.007 0.095 0.018 0.141 0.033 0.041 0.013 0.081 0.030 0.118 0.051s0.071 0.043 0.103 0.067l-0.057 0.080c-0.004 0.007-0.011 0.013-0.019 0.018s-0.017 0.007-0.027 0.007c-0.013-0-0.026-0.004-0.037-0.010-0.018-0.008-0.037-0.018-0.058-0.031-0.025-0.014-0.052-0.025-0.079-0.035-0.035-0.012-0.072-0.022-0.109-0.029-0.050-0.008-0.1-0.012-0.15-0.011-0.078-0.001-0.155 0.011-0.228 0.036-0.066 0.023-0.125 0.058-0.174 0.102-0.049 0.046-0.086 0.101-0.11 0.16-0.053 0.14-0.053 0.29 0 0.43 0.026 0.061 0.066 0.116 0.118 0.162 0.048 0.044 0.107 0.079 0.173 0.102 0.075 0.022 0.155 0.031 0.234 0.026z"></path>
<path fill="#afb1b8" style="fill: var(--color2, #afb1b8)" d="M35.039 17.674h0.645v0.147h-0.842v-1.288h0.202l-0.005 1.142z"></path>
<path fill="#afb1b8" style="fill: var(--color2, #afb1b8)" d="M36.355 17.821h-0.202v-1.288h0.202v1.288z"></path>
<path fill="#afb1b8" style="fill: var(--color2, #afb1b8)" d="M37.106 16.539c0.012 0.006 0.023 0.014 0.031 0.023l0.864 0.971c-0.001-0.015-0.001-0.031 0-0.046 0-0.014 0-0.029 0-0.042v-0.918h0.176v1.294h-0.102c-0.015 0.001-0.030-0.001-0.044-0.007-0.012-0.006-0.023-0.015-0.032-0.024l-0.863-0.97c0 0.015 0 0.030 0 0.044s0 0.028 0 0.040v0.918h-0.169v-1.289h0.105c0.011 0 0.023 0.002 0.033 0.006z"></path>
<path fill="#afb1b8" style="fill: var(--color2, #afb1b8)" d="M39.665 16.533v0.142h-0.716v0.425h0.58v0.137h-0.58v0.44h0.716v0.142h-0.924v-1.285h0.924z"></path>
<path fill="#afb1b8" style="fill: var(--color2, #afb1b8)" d="M18.491 8.576l8.972 2.199v7.707l-8.972-2.198v-7.708zM17.916 7.919v8.739l10.122 2.482v-8.739l-10.122-2.483z"></path>
<path fill="#afb1b8" style="fill: var(--color2, #afb1b8)" d="M23.34 23.197l-10.123-2.484v-8.739l10.123 2.483v8.74z"></path>
<path fill="#afb1b8" style="fill: var(--color2, #afb1b8)" d="M18.083 8.477l8.855 2.172-3.766 3.252-8.856-2.173 3.767-3.251zM17.916 7.919l-4.698 4.056 10.123 2.483 4.697-4.056-10.122-2.483z"></path>
<path fill="#afb1b8" style="fill: var(--color2, #afb1b8)" d="M23.91 22.706l4.127-3.564-4.127-1.013v4.577z"></path>
</symbol>
<symbol id="icon-Client-5" viewBox="0 0 59 32">
<path fill="#afb1b8" style="fill: var(--color2, #afb1b8)" d="M20.437 21.125c0.085 0.096 0.13 0.216 0.128 0.34 0.004 0.081-0.011 0.161-0.045 0.235s-0.086 0.141-0.152 0.194c-0.165 0.114-0.369 0.169-0.575 0.157h-1.010v-2.154h0.989c0.195-0.012 0.389 0.039 0.548 0.143 0.064 0.049 0.114 0.111 0.148 0.181s0.048 0.146 0.044 0.222c0.006 0.119-0.035 0.236-0.115 0.329-0.077 0.086-0.183 0.145-0.301 0.168 0.134 0.022 0.255 0.088 0.341 0.184zM19.253 20.8h0.423c0.096 0.006 0.192-0.019 0.269-0.072 0.032-0.026 0.056-0.059 0.072-0.096s0.022-0.076 0.019-0.115c0.003-0.039-0.003-0.078-0.019-0.114s-0.040-0.069-0.071-0.096c-0.080-0.054-0.178-0.080-0.277-0.073h-0.416v0.565zM19.986 21.626c0.034-0.027 0.061-0.061 0.078-0.099s0.025-0.079 0.022-0.12c0.003-0.042-0.005-0.083-0.023-0.121s-0.045-0.072-0.079-0.1c-0.083-0.056-0.184-0.084-0.287-0.078h-0.444v0.592h0.449c0.101 0.005 0.201-0.021 0.284-0.075z"></path>
<path fill="#afb1b8" style="fill: var(--color2, #afb1b8)" d="M22.459 22.051l-0.55-0.842h-0.207v0.842h-0.473v-2.154h0.896c0.226-0.014 0.449 0.051 0.624 0.183 0.125 0.117 0.201 0.271 0.213 0.434s-0.040 0.325-0.146 0.457c-0.111 0.116-0.262 0.193-0.427 0.219l0.586 0.861h-0.515zM21.702 20.916h0.387c0.269 0 0.403-0.109 0.403-0.326 0.003-0.044-0.005-0.089-0.022-0.131s-0.043-0.080-0.077-0.111c-0.085-0.065-0.194-0.096-0.305-0.087h-0.392l0.005 0.655z"></path>
<path fill="#afb1b8" style="fill: var(--color2, #afb1b8)" d="M25.047 21.618h-0.943l-0.167 0.433h-0.496l0.866-2.129h0.537l0.863 2.129h-0.496l-0.163-0.433zM24.921 21.291l-0.345-0.909-0.345 0.909h0.689z"></path>
<path fill="#afb1b8" style="fill: var(--color2, #afb1b8)" d="M28.286 22.051h-0.47l-1.054-1.464v1.464h-0.469v-2.154h0.469l1.054 1.473v-1.473h0.47v2.154z"></path>
<path fill="#afb1b8" style="fill: var(--color2, #afb1b8)" d="M30.968 21.536c-0.097 0.163-0.245 0.295-0.425 0.38-0.205 0.095-0.432 0.141-0.661 0.136h-0.837v-2.154h0.837c0.229-0.005 0.455 0.040 0.661 0.133 0.18 0.083 0.328 0.214 0.425 0.376 0.097 0.175 0.147 0.369 0.147 0.565s-0.050 0.39-0.147 0.565zM30.43 21.484c0.134-0.143 0.208-0.325 0.208-0.514s-0.074-0.371-0.208-0.514c-0.162-0.13-0.374-0.195-0.588-0.183h-0.326v1.394h0.326c0.215 0.012 0.426-0.053 0.588-0.183z"></path>
<path fill="#afb1b8" style="fill: var(--color2, #afb1b8)" d="M25.341 7.919c0 0 6.066 2.097 5.937 5.131v5.132c0 0-6.061-2.098-5.935-5.132l-0.002-5.131z"></path>
<path fill="#afb1b8" style="fill: var(--color2, #afb1b8)" d="M36.682 16.98c1.146-0.722 2.471-1.169 3.854-1.3v-1.607c-1.594 0.562-2.946 1.582-3.854 2.907z"></path>
<path fill="#afb1b8" style="fill: var(--color2, #afb1b8)" d="M35.994 17.464c0.937-1.729 2.563-3.063 4.542-3.727v-4.629c0 0-8.638 2.987-8.456 7.308v7.306c0 0 0.385-0.134 0.99-0.384 0-0.234 0-0.469 0.028-0.706 0.179-2.006 1.22-3.865 2.896-5.168z"></path>
<path fill="#afb1b8" style="fill: var(--color2, #afb1b8)" d="M35.172 20.178c0.045-0.507 0.146-1.008 0.302-1.496-1.043 1.125-1.675 2.522-1.806 3.993-0.013 0.139-0.020 0.278-0.023 0.421 0.491-0.216 1.062-0.485 1.661-0.802-0.153-0.696-0.198-1.408-0.134-2.116z"></path>
<path fill="#afb1b8" style="fill: var(--color2, #afb1b8)" d="M35.515 20.205c-0.057 0.64-0.022 1.284 0.107 1.916 2.36-1.293 5.012-3.291 4.91-5.705v-0.21c-1.686 0.173-3.264 0.848-4.49 1.921-0.287 0.665-0.464 1.366-0.526 2.079z"></path>
</symbol>
<symbol id="icon-Client-4" viewBox="0 0 59 32">
<path fill="#afb1b8" style="fill: var(--color3, #afb1b8)" d="M19.529 12.905h-0.001c-0.834 0-1.51 0.601-1.51 1.342v0.001c0 0.741 0.676 1.342 1.51 1.342h0.001c0.834 0 1.51-0.601 1.51-1.342v-0.001c0-0.741-0.676-1.342-1.51-1.342z"></path> -->
<path fill="#afb1b8" style="fill: var(--color3, #afb1b8)" d="M30.677 12.476c-0.002-1.030-0.464-2.016-1.283-2.744s-1.929-1.138-3.088-1.141v0c-1.159 0.002-2.27 0.412-3.089 1.14s-1.281 1.715-1.283 2.745v5.678c0 0 8.742-0.865 8.743-5.677v-0.001z"></path> --> -->
<path fill="#afb1b8" style="fill: var(--color3, #afb1b8)" d="M14.957 20.017c0.002 0.716 0.323 1.403 0.893 1.91s1.342 0.792 2.148 0.794c0.806-0.002 1.578-0.288 2.148-0.794s0.891-1.193 0.893-1.909v-3.95c0 0-6.083 0.602-6.083 3.95zM17.998 20.725c-0.158 0-0.311-0.042-0.442-0.119s-0.233-0.188-0.293-0.318c-0.060-0.129-0.076-0.272-0.045-0.409s0.107-0.263 0.218-0.362c0.111-0.099 0.253-0.166 0.408-0.194s0.315-0.013 0.46 0.040c0.146 0.054 0.27 0.144 0.357 0.261s0.134 0.253 0.134 0.393c0 0.093-0.020 0.186-0.060 0.272s-0.098 0.165-0.172 0.231c-0.074 0.066-0.162 0.118-0.259 0.154s-0.201 0.054-0.305 0.054v-0.003z"></path> -->
<path fill="#afb1b8" style="fill: var(--color3, #afb1b8)" d="M24.145 20.335h-0.587v0.606h-0.306v-1.484h0.966v0.248h-0.66v0.383h0.587v0.247zM25.615 20.233c0 0.146-0.026 0.274-0.077 0.384s-0.126 0.195-0.222 0.255c-0.096 0.060-0.206 0.090-0.33 0.090-0.123 0-0.233-0.030-0.329-0.089s-0.171-0.143-0.224-0.253c-0.053-0.11-0.080-0.236-0.081-0.379v-0.073c0-0.146 0.026-0.274 0.078-0.385s0.127-0.197 0.223-0.256c0.096-0.060 0.207-0.090 0.33-0.090s0.233 0.030 0.329 0.090c0.096 0.059 0.171 0.144 0.223 0.256s0.079 0.239 0.079 0.384v0.066zM25.305 20.166c0-0.156-0.028-0.274-0.084-0.355s-0.135-0.121-0.238-0.121c-0.103 0-0.182 0.040-0.237 0.12s-0.084 0.196-0.085 0.351v0.072c0 0.151 0.028 0.269 0.084 0.353s0.136 0.125 0.241 0.125c0.103 0 0.181-0.040 0.236-0.12s0.083-0.198 0.084-0.353v-0.072zM26.606 20.552c0-0.058-0.020-0.102-0.061-0.133s-0.114-0.064-0.22-0.098c-0.106-0.035-0.19-0.069-0.252-0.102-0.169-0.091-0.253-0.214-0.253-0.368 0-0.080 0.022-0.151 0.067-0.214s0.11-0.112 0.195-0.148c0.085-0.035 0.18-0.053 0.285-0.053s0.2 0.019 0.283 0.058c0.083 0.038 0.147 0.092 0.193 0.162s0.069 0.149 0.069 0.238h-0.306c0-0.068-0.021-0.121-0.064-0.158s-0.103-0.057-0.18-0.057c-0.075 0-0.133 0.016-0.174 0.048s-0.062 0.073-0.062 0.124c0 0.048 0.024 0.089 0.072 0.121s0.121 0.063 0.215 0.092c0.174 0.052 0.301 0.117 0.38 0.195s0.119 0.174 0.119 0.289c0 0.128-0.049 0.229-0.146 0.303s-0.228 0.109-0.392 0.109c-0.114 0-0.218-0.021-0.312-0.062s-0.165-0.099-0.215-0.172c-0.049-0.073-0.073-0.157-0.073-0.253h0.307c0 0.164 0.098 0.246 0.294 0.246 0.073 0 0.129-0.015 0.17-0.044s0.061-0.071 0.061-0.124zM28.238 19.705h-0.454v1.236h-0.306v-1.236h-0.448v-0.248h1.209v0.248zM29.306 20.299h-0.587v0.397h0.689v0.246h-0.995v-1.484h0.993v0.248h-0.687v0.354h0.587v0.239zM30.136 20.398h-0.244v0.543h-0.306v-1.484h0.551c0.175 0 0.31 0.039 0.406 0.117s0.143 0.189 0.143 0.331c0 0.101-0.022 0.186-0.066 0.254s-0.11 0.121-0.199 0.161l0.321 0.606v0.014h-0.328l-0.278-0.543zM29.893 20.151h0.247c0.077 0 0.136-0.019 0.178-0.058s0.063-0.093 0.063-0.162c0-0.070-0.020-0.125-0.060-0.165s-0.1-0.060-0.182-0.060h-0.246v0.445zM31.745 20.419v0.523h-0.306v-1.484h0.579c0.111 0 0.209 0.020 0.293 0.061s0.15 0.099 0.196 0.174c0.046 0.075 0.068 0.16 0.068 0.256 0 0.145-0.050 0.26-0.15 0.344s-0.237 0.125-0.413 0.125h-0.268zM31.745 20.171h0.273c0.081 0 0.142-0.019 0.184-0.057s0.064-0.092 0.064-0.163c0-0.073-0.021-0.131-0.064-0.176s-0.102-0.068-0.177-0.069h-0.28v0.466zM33.679 20.299h-0.587v0.397h0.689v0.246h-0.995v-1.484h0.993v0.248h-0.687v0.354h0.587v0.239zM35.098 19.705h-0.454v1.236h-0.306v-1.236h-0.448v-0.248h1.209v0.248zM36.166 20.299h-0.587v0.397h0.689v0.246h-0.994v-1.484h0.992v0.248h-0.687v0.354h0.587v0.239zM36.996 20.398h-0.243v0.543h-0.306v-1.484h0.551c0.175 0 0.31 0.039 0.406 0.117s0.143 0.189 0.143 0.331c0 0.101-0.022 0.186-0.066 0.254s-0.11 0.121-0.199 0.161l0.321 0.606v0.014h-0.328l-0.278-0.543zM36.753 20.151h0.247c0.077 0 0.136-0.019 0.178-0.058s0.063-0.093 0.063-0.162c0-0.070-0.020-0.125-0.060-0.165-0.039-0.040-0.1-0.060-0.182-0.060h-0.246v0.445zM38.549 20.552c0-0.058-0.021-0.102-0.061-0.133s-0.114-0.064-0.22-0.098c-0.106-0.035-0.19-0.069-0.251-0.102-0.169-0.091-0.253-0.214-0.253-0.368 0-0.080 0.023-0.151 0.067-0.214 0.046-0.063 0.111-0.112 0.195-0.148s0.18-0.053 0.285-0.053c0.106 0 0.2 0.019 0.283 0.058s0.147 0.092 0.192 0.162c0.046 0.070 0.070 0.149 0.070 0.238h-0.306c0-0.068-0.022-0.121-0.064-0.158s-0.103-0.057-0.18-0.057c-0.075 0-0.133 0.016-0.174 0.048s-0.062 0.073-0.062 0.124c0 0.048 0.024 0.089 0.072 0.121s0.121 0.063 0.215 0.092c0.174 0.052 0.301 0.117 0.38 0.195s0.119 0.174 0.119 0.289c0 0.128-0.049 0.229-0.146 0.303s-0.228 0.109-0.392 0.109c-0.114 0-0.218-0.021-0.312-0.062s-0.165-0.099-0.215-0.172c-0.049-0.073-0.073-0.157-0.073-0.253h0.307c0 0.164 0.098 0.246 0.294 0.246 0.073 0 0.129-0.015 0.17-0.044s0.061-0.071 0.061-0.124z"></path> -->
</symbol>
<symbol id="icon-Client-3" viewBox="0 0 59 32">
<path fill="#afb1b8" style="fill: var(--color2, #afb1b8)" d="M23.794 22.644c0.006 0 0.011 0.001 0.016 0.003s0.010 0.005 0.013 0.008l0.076 0.073c-0.059 0.059-0.132 0.106-0.213 0.138-0.096 0.035-0.199 0.052-0.303 0.049-0.097 0.002-0.194-0.014-0.285-0.046-0.081-0.030-0.154-0.074-0.214-0.13-0.061-0.058-0.108-0.127-0.138-0.201-0.033-0.083-0.049-0.17-0.048-0.258-0.001-0.088 0.016-0.176 0.052-0.259 0.033-0.075 0.083-0.143 0.147-0.201 0.065-0.057 0.142-0.101 0.228-0.131 0.093-0.031 0.193-0.047 0.293-0.046 0.093-0.002 0.186 0.012 0.272 0.042 0.075 0.028 0.144 0.068 0.204 0.116l-0.064 0.077c-0.004 0.005-0.010 0.010-0.016 0.014-0.007 0.004-0.017 0.006-0.026 0.006s-0.019-0.003-0.027-0.008l-0.034-0.021-0.047-0.026c-0.020-0.010-0.042-0.018-0.064-0.026-0.028-0.009-0.057-0.016-0.086-0.021-0.037-0.006-0.075-0.009-0.113-0.008-0.072-0.001-0.144 0.011-0.21 0.035-0.062 0.022-0.119 0.055-0.165 0.097-0.047 0.045-0.084 0.098-0.107 0.155-0.027 0.066-0.040 0.135-0.039 0.204-0.001 0.071 0.012 0.141 0.039 0.208 0.023 0.057 0.059 0.109 0.105 0.154 0.043 0.042 0.097 0.075 0.157 0.096 0.062 0.022 0.128 0.034 0.195 0.033 0.039 0.001 0.077-0.002 0.116-0.007 0.063-0.007 0.122-0.026 0.175-0.055 0.027-0.015 0.052-0.032 0.075-0.051 0.010-0.008 0.023-0.013 0.036-0.013z"></path>
<path fill="#afb1b8" style="fill: var(--color2, #afb1b8)" d="M25.984 22.28c0.001 0.087-0.016 0.174-0.051 0.256-0.031 0.074-0.080 0.142-0.143 0.199s-0.14 0.101-0.224 0.131c-0.186 0.062-0.391 0.062-0.577 0-0.084-0.030-0.16-0.074-0.223-0.131-0.063-0.058-0.112-0.126-0.144-0.201-0.068-0.166-0.068-0.347 0-0.513 0.032-0.075 0.081-0.143 0.144-0.202 0.064-0.055 0.139-0.098 0.223-0.126 0.185-0.063 0.391-0.063 0.577 0 0.084 0.030 0.16 0.074 0.224 0.131s0.111 0.125 0.143 0.199c0.035 0.082 0.052 0.17 0.051 0.258zM25.785 22.28c0.002-0.070-0.011-0.14-0.036-0.206-0.021-0.057-0.056-0.109-0.101-0.154-0.044-0.042-0.099-0.076-0.16-0.097-0.135-0.045-0.284-0.045-0.419 0-0.061 0.022-0.116 0.055-0.16 0.097-0.046 0.044-0.081 0.097-0.102 0.154-0.048 0.134-0.048 0.278 0 0.412 0.021 0.057 0.056 0.11 0.102 0.154 0.045 0.042 0.099 0.075 0.16 0.096 0.135 0.044 0.284 0.044 0.419 0 0.061-0.021 0.116-0.054 0.16-0.096 0.045-0.045 0.080-0.097 0.101-0.154 0.025-0.066 0.038-0.136 0.036-0.206z"></path>
<path fill="#afb1b8" style="fill: var(--color2, #afb1b8)" d="M27.479 22.496l0.020 0.046c0.008-0.017 0.014-0.031 0.022-0.046s0.015-0.031 0.025-0.045l0.485-0.765c0.009-0.013 0.018-0.021 0.027-0.024 0.013-0.003 0.026-0.005 0.040-0.004h0.143v1.245h-0.17v-0.915c0-0.012 0-0.025 0-0.039s-0.001-0.029 0-0.043l-0.487 0.776c-0.006 0.012-0.016 0.021-0.029 0.028s-0.027 0.011-0.042 0.010h-0.027c-0.015 0-0.029-0.003-0.042-0.010s-0.022-0.017-0.028-0.028l-0.502-0.781c0 0.015 0 0.030 0 0.044s0 0.028 0 0.040v0.915h-0.164v-1.242h0.143c0.013-0.001 0.027 0.001 0.040 0.004 0.012 0.005 0.021 0.014 0.027 0.024l0.495 0.766c0.010 0.014 0.018 0.029 0.025 0.044z"></path>
<path fill="#afb1b8" style="fill: var(--color2, #afb1b8)" d="M29.302 22.434v0.466h-0.19v-1.243h0.423c0.080-0.001 0.159 0.008 0.236 0.027 0.061 0.015 0.118 0.042 0.167 0.077 0.042 0.034 0.075 0.075 0.095 0.122 0.022 0.051 0.033 0.105 0.032 0.159 0.001 0.055-0.011 0.109-0.035 0.159-0.023 0.048-0.058 0.090-0.102 0.124-0.049 0.037-0.106 0.066-0.168 0.082-0.074 0.020-0.151 0.030-0.229 0.029l-0.23-0.003zM29.302 22.3h0.23c0.050 0.001 0.099-0.006 0.147-0.019 0.039-0.011 0.075-0.030 0.106-0.054 0.029-0.023 0.051-0.051 0.064-0.082 0.015-0.033 0.023-0.069 0.023-0.105 0.002-0.035-0.004-0.069-0.019-0.101s-0.037-0.061-0.066-0.085c-0.072-0.049-0.163-0.073-0.255-0.067h-0.23v0.512z"></path>
<path fill="#afb1b8" style="fill: var(--color2, #afb1b8)" d="M31.852 22.902h-0.15c-0.015 0.001-0.030-0.004-0.042-0.012-0.011-0.008-0.019-0.018-0.025-0.029l-0.129-0.301h-0.648l-0.134 0.301c-0.005 0.011-0.013 0.021-0.024 0.028-0.012 0.008-0.027 0.013-0.043 0.012h-0.15l0.569-1.245h0.197l0.577 1.245zM30.913 22.439h0.535l-0.226-0.507c-0.017-0.038-0.032-0.077-0.043-0.117l-0.022 0.065c-0.007 0.020-0.014 0.038-0.021 0.053l-0.224 0.506z"></path>
<path fill="#afb1b8" style="fill: var(--color2, #afb1b8)" d="M32.671 21.662c0.011 0.005 0.021 0.013 0.028 0.022l0.83 0.939c0-0.015 0-0.030 0-0.044s0-0.028 0-0.041v-0.882h0.17v1.245h-0.095c-0.013 0-0.027-0.002-0.039-0.007s-0.022-0.014-0.030-0.023l-0.829-0.938c0.001 0.014 0.001 0.029 0 0.043s0 0.026 0 0.038v0.887h-0.17v-1.245h0.101c0.012-0 0.023 0.002 0.034 0.006z"></path>
<path fill="#afb1b8" style="fill: var(--color2, #afb1b8)" d="M35.097 22.407v0.494h-0.19v-0.494l-0.525-0.75h0.17c0.015-0.001 0.029 0.003 0.041 0.011 0.010 0.008 0.019 0.017 0.026 0.028l0.328 0.484c0.014 0.021 0.025 0.040 0.034 0.058s0.017 0.035 0.024 0.053l0.025-0.054c0.009-0.020 0.020-0.039 0.032-0.057l0.323-0.487c0.007-0.010 0.015-0.019 0.025-0.026 0.011-0.009 0.026-0.013 0.041-0.012h0.172l-0.526 0.753z"></path>
<path fill="#afb1b8" style="fill: var(--color2, #afb1b8)" d="M27.385 19.567c0.082 0.009 0.166 0.017 0.25 0.023 1.28-0.497 2.362-1.311 3.112-2.34s1.134-2.227 1.105-3.445l-1.41-1.225c0.287 1.296 0.153 2.637-0.387 3.871s-1.465 2.313-2.67 3.117z"></path>
<path fill="#afb1b8" style="fill: var(--color2, #afb1b8)" d="M26.881 19.51l0.038 0.007c1.288-0.801 2.271-1.919 2.82-3.209s0.64-2.695 0.261-4.031l-2.009-1.745c0.812 1.434 1.139 3.040 0.943 4.629s-0.908 3.098-2.053 4.35z"></path>
<path fill="#afb1b8" style="fill: var(--color2, #afb1b8)" d="M33.693 15.244c-0.341 1.338-1.17 2.545-2.363 3.441-0.349 0.263-0.724 0.498-1.123 0.7 0.972-0.248 1.865-0.687 2.61-1.282s1.324-1.332 1.69-2.152l-0.815-0.707z"></path>
<path fill="#afb1b8" style="fill: var(--color2, #afb1b8)" d="M33.374 15.047l-1.16-1.008c-0.022 1.149-0.398 2.272-1.089 3.252s-1.671 1.781-2.838 2.321h0.006c0.26-0 0.52-0.014 0.779-0.040 1.091-0.387 2.055-1.003 2.806-1.792s1.265-1.728 1.497-2.732z"></path>
<path fill="#afb1b8" style="fill: var(--color2, #afb1b8)" d="M27.049 9.795l-1.384-1.204c-1.237 0.415-2.301 1.145-3.052 2.095s-1.156 2.074-1.159 3.226v0c0.005 1.273 0.498 2.508 1.401 3.511s2.166 1.714 3.588 2.022c1.269-1.343 2.012-3.003 2.121-4.739s-0.422-3.456-1.515-4.911z"></path>
<path fill="#afb1b8" style="fill: var(--color2, #afb1b8)" d="M36.57 14.862c-0.005-1.51-0.698-2.958-1.927-4.026s-2.895-1.67-4.633-1.674c-0.803-0.001-1.6 0.128-2.349 0.38l8.471 7.36c0.29-0.651 0.439-1.342 0.438-2.040z"></path>
</symbol>
<symbol id="icon-Client-2" viewBox="0 0 59 32">
<path fill="#afb1b8" style="fill: var(--color2, #afb1b8)" d="M28.561 8.225h-0.047c-0.073-0.004-0.146-0.006-0.219-0.008v0h-0.158c-0.138 0-0.279 0.004-0.419 0.011-0.011-0.001-0.021-0.001-0.032 0-1.268 0.072-2.51 0.389-3.658 0.933l-0.15 0.073v7.701l0.352-0.119c0.309-0.106 0.638-0.202 0.978-0.29 0.921-0.236 1.866-0.362 2.816-0.374v1.012c-0.126 0.001-0.248 0.004-0.37 0.011h-0.029c-0.731 0.040-1.457 0.151-2.166 0.333-0.899 0.225-1.766 0.563-2.581 1.006v-9.877c0.846-0.494 1.758-0.864 2.707-1.101 0.834-0.215 1.691-0.326 2.552-0.329h0.149c0.178 0.004 0.351 0.012 0.514 0.025 0.429 0.030 0.854 0.098 1.271 0.203v0.996c-0.405-0.094-0.817-0.156-1.232-0.186-0.008-0.001-0.017-0.001-0.025-0.002-0.086-0.007-0.172-0.015-0.252-0.015zM30.314 9.243c0.221 0.017 0.45 0.025 0.681 0.025 0.905-0.003 1.806-0.119 2.683-0.344 0.898-0.226 1.765-0.564 2.58-1.007v9.701c-0.847 0.493-1.758 0.864-2.708 1.101-0.834 0.214-1.691 0.325-2.552 0.328-0.652 0.005-1.302-0.071-1.936-0.228v-9.764c0.15 0.034 0.304 0.066 0.46 0.093 0.257 0.043 0.528 0.075 0.792 0.095zM35.251 9.319l-0.352 0.118c-0.324 0.109-0.65 0.206-0.978 0.293-0.956 0.246-1.938 0.371-2.924 0.375-0.23 0-0.441-0.006-0.645-0.019l-0.281-0.019v7.922l0.241 0.021c0.224 0.019 0.454 0.029 0.686 0.029 0.777-0.003 1.55-0.103 2.303-0.298 0.62-0.155 1.222-0.372 1.799-0.647l0.151-0.073v-7.704z"></path>
<path fill="#afb1b8" style="fill: var(--color2, #afb1b8)" d="M23.561 21.887c-0.051-0.052-0.112-0.094-0.179-0.121s-0.14-0.040-0.213-0.037c-0.077-0.001-0.154 0.013-0.226 0.042-0.066 0.026-0.126 0.066-0.176 0.116s-0.088 0.111-0.113 0.177c-0.028 0.069-0.041 0.144-0.041 0.218v1.32c-0.003 0.093 0.015 0.186 0.052 0.271 0.031 0.068 0.076 0.128 0.132 0.177 0.053 0.044 0.115 0.076 0.181 0.094 0.064 0.018 0.13 0.027 0.197 0.027 0.073 0.001 0.146-0.015 0.213-0.046 0.066-0.029 0.126-0.070 0.176-0.122 0.049-0.051 0.088-0.111 0.115-0.177 0.028-0.067 0.043-0.138 0.042-0.21v-0.148h-0.345v0.118c0.001 0.040-0.006 0.080-0.020 0.118-0.011 0.028-0.028 0.053-0.050 0.074-0.021 0.017-0.046 0.030-0.072 0.038-0.023 0.008-0.048 0.012-0.072 0.012-0.031 0.004-0.062-0.001-0.090-0.014s-0.053-0.032-0.071-0.057c-0.033-0.053-0.048-0.115-0.046-0.177v-1.23c-0.002-0.068 0.012-0.136 0.042-0.197 0.018-0.028 0.043-0.050 0.073-0.064s0.063-0.019 0.096-0.015c0.030-0.001 0.059 0.005 0.086 0.018s0.050 0.032 0.068 0.056c0.039 0.051 0.059 0.113 0.057 0.177v0.114h0.341v-0.134c0.001-0.079-0.014-0.157-0.042-0.231-0.025-0.069-0.065-0.132-0.115-0.186z"></path>
<path fill="#afb1b8" style="fill: var(--color2, #afb1b8)" d="M25.61 21.872c-0.11-0.093-0.249-0.144-0.392-0.145-0.070 0-0.14 0.013-0.206 0.037-0.067 0.024-0.129 0.061-0.182 0.108-0.057 0.051-0.103 0.114-0.134 0.185-0.035 0.081-0.052 0.168-0.050 0.256v1.266c-0.002 0.089 0.015 0.178 0.050 0.259 0.031 0.068 0.077 0.128 0.134 0.177 0.053 0.049 0.115 0.087 0.182 0.111 0.066 0.024 0.136 0.037 0.206 0.037s0.14-0.013 0.206-0.037c0.069-0.025 0.132-0.063 0.187-0.111s0.099-0.11 0.13-0.177c0.035-0.082 0.053-0.17 0.050-0.259v-1.266c0.002-0.088-0.015-0.175-0.050-0.256-0.031-0.070-0.075-0.133-0.13-0.185zM25.449 23.578c0.003 0.034-0.002 0.068-0.014 0.099s-0.031 0.060-0.055 0.084c-0.046 0.038-0.103 0.059-0.162 0.059s-0.117-0.021-0.162-0.059c-0.024-0.023-0.043-0.052-0.055-0.084s-0.017-0.066-0.014-0.099v-1.266c-0.003-0.034 0.002-0.068 0.014-0.099s0.031-0.060 0.055-0.084c0.046-0.038 0.103-0.059 0.162-0.059s0.117 0.021 0.162 0.059c0.024 0.023 0.043 0.052 0.055 0.084s0.017 0.066 0.014 0.099v1.266z"></path>
<path fill="#afb1b8" style="fill: var(--color2, #afb1b8)" d="M28.302 24.143v-2.396h-0.332l-0.436 1.268h-0.006l-0.439-1.268h-0.328v2.396h0.342v-1.458h0.006l0.335 1.030h0.171l0.338-1.030h0.006v1.458h0.342z"></path>
<path fill="#afb1b8" style="fill: var(--color2, #afb1b8)" d="M30.246 21.915c-0.053-0.059-0.119-0.104-0.194-0.131-0.080-0.026-0.164-0.039-0.248-0.037h-0.509v2.396h0.341v-0.936h0.176c0.107 0.005 0.213-0.018 0.308-0.065 0.078-0.043 0.142-0.106 0.187-0.183 0.039-0.064 0.066-0.135 0.078-0.209 0.013-0.090 0.020-0.181 0.018-0.272 0.003-0.115-0.008-0.23-0.033-0.342-0.023-0.083-0.066-0.159-0.126-0.22zM30.070 22.646c-0.001 0.043-0.012 0.086-0.032 0.125-0.020 0.037-0.050 0.066-0.088 0.084-0.051 0.023-0.106 0.033-0.161 0.030h-0.156v-0.815h0.176c0.053-0.003 0.106 0.008 0.154 0.030 0.035 0.020 0.063 0.051 0.080 0.088 0.019 0.042 0.029 0.087 0.030 0.134 0 0.050 0 0.104 0 0.159s0.003 0.113 0 0.165h-0.003z"></path>
<path fill="#afb1b8" style="fill: var(--color2, #afb1b8)" d="M31.864 21.747h-0.28l-0.528 2.396h0.341l0.1-0.515h0.465l0.1 0.515h0.341l-0.541-2.396zM31.549 23.302l0.168-0.869h0.006l0.167 0.869h-0.341z"></path>
<path fill="#afb1b8" style="fill: var(--color2, #afb1b8)" d="M34.069 23.191h-0.006l-0.516-1.443h-0.328v2.396h0.341v-1.441h0.007l0.522 1.441h0.321v-2.396h-0.341v1.443z"></path>
<path fill="#afb1b8" style="fill: var(--color2, #afb1b8)" d="M36.156 21.747l-0.275 0.953h-0.007l-0.274-0.953h-0.362l0.469 1.383v1.013h0.342v-1.013l0.469-1.383h-0.361z"></path>
<path fill="#afb1b8" style="fill: var(--color2, #afb1b8)" d="M22.609 24.82h0.165v0.462h0.112v-0.462h0.164v-0.095h-0.44v0.095z"></path>
<path fill="#afb1b8" style="fill: var(--color2, #afb1b8)" d="M23.992 24.725l-0.216 0.556h0.119l0.046-0.127h0.222l0.047 0.127h0.121l-0.221-0.556h-0.119zM23.974 25.062l0.076-0.206 0.076 0.206h-0.151z"></path>
<path fill="#afb1b8" style="fill: var(--color2, #afb1b8)" d="M25.359 25.077h0.128v0.072c-0.038 0.030-0.084 0.047-0.132 0.047-0.022 0.001-0.045-0.003-0.065-0.012s-0.039-0.023-0.053-0.041c-0.029-0.042-0.044-0.093-0.041-0.145 0-0.124 0.054-0.186 0.16-0.186 0.028-0.003 0.056 0.005 0.079 0.021s0.040 0.040 0.047 0.068l0.11-0.021c-0.024-0.109-0.102-0.164-0.236-0.164-0.072-0.002-0.141 0.024-0.194 0.072-0.028 0.028-0.050 0.061-0.064 0.098s-0.019 0.077-0.017 0.116c-0.003 0.076 0.022 0.151 0.071 0.209 0.027 0.028 0.060 0.050 0.097 0.064s0.076 0.020 0.114 0.017c0.087 0.002 0.172-0.029 0.236-0.088v-0.219h-0.241v0.094z"></path>
<path fill="#afb1b8" style="fill: var(--color2, #afb1b8)" d="M26.756 24.725h-0.113v0.556h0.39v-0.095h-0.277v-0.462z"></path>
<path fill="#afb1b8" style="fill: var(--color2, #afb1b8)" d="M27.937 24.725h-0.113v0.556h0.113v-0.556z"></path>
<path fill="#afb1b8" style="fill: var(--color2, #afb1b8)" d="M29.091 25.097l-0.228-0.371h-0.109v0.556h0.105v-0.364l0.224 0.364h0.112v-0.556h-0.103v0.371z"></path>
<path fill="#afb1b8" style="fill: var(--color2, #afb1b8)" d="M30.135 25.037h0.277v-0.095h-0.277v-0.122h0.298v-0.095h-0.411v0.556h0.422v-0.095h-0.31v-0.15z"></path>
<path fill="#afb1b8" style="fill: var(--color2, #afb1b8)" d="M32.665 24.945h-0.219v-0.219h-0.112v0.556h0.112v-0.243h0.219v0.243h0.112v-0.556h-0.112v0.219z"></path>
<path fill="#afb1b8" style="fill: var(--color2, #afb1b8)" d="M33.715 25.037h0.278v-0.095h-0.278v-0.122h0.299v-0.095h-0.411v0.556h0.421v-0.095h-0.31v-0.15z"></path>
<path fill="#afb1b8" style="fill: var(--color2, #afb1b8)" d="M35.138 25.037c0.097-0.015 0.146-0.066 0.146-0.155 0.003-0.024-0.001-0.048-0.010-0.069s-0.025-0.041-0.044-0.054c-0.050-0.025-0.106-0.037-0.163-0.033h-0.236v0.556h0.112v-0.233h0.022c0.024-0.001 0.048 0.003 0.070 0.012 0.016 0.010 0.030 0.024 0.040 0.041l0.121 0.177h0.134l-0.068-0.109c-0.030-0.054-0.072-0.099-0.123-0.134zM35.026 24.96h-0.082v-0.14h0.088c0.038-0.003 0.077 0.001 0.113 0.013 0.008 0.007 0.015 0.016 0.019 0.026s0.006 0.021 0.006 0.032c-0 0.011-0.003 0.021-0.008 0.031s-0.013 0.018-0.021 0.024c-0.037 0.011-0.075 0.016-0.114 0.013z"></path>
<path fill="#afb1b8" style="fill: var(--color2, #afb1b8)" d="M36.212 25.037h0.277v-0.095h-0.277v-0.122h0.299v-0.095h-0.412v0.556h0.422v-0.095h-0.31v-0.15z"></path>
</symbol>
<symbol id="icon-Client-1" viewBox="0 0 59 32">
<path fill="#afb1b8" style="fill: var(--color2, #afb1b8)" d="M24.348 8.596l2.438 2.308-4.524-0.003v11.196h11.826v-4.281l2.435 2.305v-11.525h-12.174zM33.98 17.545l-6.911-6.543h6.911v6.543zM31.834 20.459h-7.702v-7.53h0.544v7.020h7.157v0.51zM25.951 23.587l-0.285 0.586-0.285-0.586h-0.239l0.415 0.781v0.455h0.216v-0.455l0.414-0.781h-0.238zM26.308 24.823l0.1-0.288h0.479l0.101 0.288h0.224l-0.468-1.236h-0.193l-0.467 1.236h0.223zM26.648 23.849l0.179 0.513h-0.358l0.179-0.513zM27.781 24.332c-0.031 0.048-0.047 0.1-0.047 0.157 0 0.104 0.037 0.189 0.11 0.254s0.172 0.097 0.294 0.097 0.228-0.033 0.316-0.099l0.070 0.082h0.239l-0.182-0.215c0.071-0.097 0.107-0.222 0.107-0.375h-0.179c0 0.083-0.017 0.159-0.052 0.227l-0.239-0.282 0.084-0.061c0.059-0.043 0.102-0.086 0.128-0.129s0.039-0.091 0.039-0.143c0-0.078-0.029-0.143-0.087-0.196s-0.131-0.080-0.221-0.080c-0.1 0-0.179 0.028-0.238 0.085s-0.088 0.132-0.088 0.229c0 0.040 0.009 0.081 0.028 0.123s0.053 0.094 0.101 0.155c-0.092 0.066-0.153 0.123-0.184 0.171zM28.339 24.606c-0.061 0.046-0.126 0.070-0.195 0.070-0.062 0-0.111-0.018-0.148-0.053s-0.055-0.082-0.055-0.139c0-0.066 0.034-0.125 0.102-0.177l0.026-0.019 0.27 0.318zM28.117 24.058c-0.058-0.072-0.087-0.132-0.087-0.179 0-0.041 0.012-0.076 0.036-0.103s0.056-0.041 0.096-0.041c0.037 0 0.068 0.012 0.093 0.035s0.037 0.050 0.037 0.082c0 0.049-0.018 0.089-0.053 0.12l-0.026 0.021-0.094 0.065zM30.13 24.73c0.085-0.074 0.134-0.177 0.146-0.309h-0.214c-0.011 0.088-0.038 0.151-0.081 0.189s-0.106 0.057-0.19 0.057c-0.092 0-0.162-0.035-0.211-0.105s-0.071-0.172-0.071-0.306v-0.11c0.001-0.132 0.027-0.232 0.076-0.3s0.122-0.103 0.216-0.103c0.080 0 0.141 0.020 0.183 0.059s0.068 0.103 0.078 0.192h0.214c-0.014-0.135-0.062-0.24-0.145-0.314s-0.193-0.111-0.329-0.111c-0.101 0-0.191 0.024-0.268 0.072s-0.136 0.117-0.177 0.206c-0.041 0.089-0.062 0.192-0.062 0.308v0.115c0.002 0.114 0.023 0.214 0.064 0.3s0.099 0.153 0.173 0.2c0.075 0.046 0.162 0.070 0.261 0.070 0.141 0 0.254-0.037 0.339-0.11zM31.392 24.557c0.042-0.092 0.063-0.198 0.063-0.319v-0.069c-0.001-0.121-0.022-0.226-0.065-0.317s-0.103-0.161-0.181-0.209c-0.078-0.049-0.167-0.073-0.267-0.073s-0.19 0.025-0.268 0.074c-0.078 0.049-0.138 0.119-0.181 0.211s-0.064 0.199-0.064 0.319v0.070c0.001 0.118 0.022 0.223 0.065 0.313s0.104 0.16 0.182 0.21c0.079 0.049 0.168 0.073 0.268 0.073 0.101 0 0.191-0.024 0.268-0.073s0.138-0.119 0.18-0.211zM31.162 23.858c0.052 0.073 0.078 0.178 0.078 0.315v0.065c0 0.139-0.026 0.245-0.077 0.318s-0.124 0.109-0.219 0.109c-0.094 0-0.168-0.037-0.221-0.111s-0.079-0.179-0.079-0.315v-0.071c0.001-0.133 0.028-0.236 0.080-0.308s0.125-0.11 0.218-0.11c0.095 0 0.168 0.037 0.22 0.11z"></path>
</symbol>
<symbol id="icon-E-mail" viewBox="0 0 322 32">
<path fill="#757575" style="fill: var(--color4, #757575)" d="M57.223 11.207v14.793h-3.309v-14.793h3.309zM53.695 7.324c0-0.501 0.164-0.916 0.492-1.244 0.337-0.337 0.802-0.506 1.394-0.506 0.583 0 1.044 0.169 1.381 0.506 0.337 0.328 0.506 0.743 0.506 1.244 0 0.492-0.169 0.902-0.506 1.23s-0.797 0.492-1.381 0.492c-0.592 0-1.057-0.164-1.394-0.492-0.328-0.328-0.492-0.738-0.492-1.23zM64.66 14.365v11.635h-3.295v-14.793h3.104l0.191 3.158zM64.072 18.057l-1.066-0.014c0.009-1.048 0.155-2.010 0.437-2.885 0.292-0.875 0.693-1.627 1.203-2.256 0.519-0.629 1.139-1.112 1.859-1.449 0.72-0.346 1.522-0.52 2.406-0.52 0.711 0 1.353 0.1 1.928 0.301 0.583 0.191 1.080 0.506 1.49 0.943 0.419 0.438 0.738 1.007 0.957 1.709 0.219 0.693 0.328 1.545 0.328 2.557v9.557h-3.309v-9.57c0-0.711-0.105-1.271-0.314-1.682-0.2-0.419-0.497-0.715-0.889-0.889-0.383-0.182-0.861-0.273-1.436-0.273-0.565 0-1.071 0.118-1.518 0.355s-0.825 0.561-1.135 0.971c-0.301 0.41-0.533 0.884-0.697 1.422s-0.246 1.112-0.246 1.723zM81.995 26h-3.295v-16.215c0-1.103 0.205-2.028 0.615-2.775 0.419-0.756 1.016-1.326 1.791-1.709 0.775-0.392 1.691-0.588 2.748-0.588 0.328 0 0.652 0.023 0.971 0.068 0.319 0.036 0.629 0.096 0.93 0.178l-0.082 2.543c-0.182-0.046-0.383-0.077-0.602-0.096-0.21-0.018-0.438-0.027-0.684-0.027-0.501 0-0.934 0.096-1.299 0.287-0.356 0.182-0.629 0.451-0.82 0.807-0.182 0.355-0.273 0.793-0.273 1.313v16.215zM85.044 11.207v2.406h-8.613v-2.406h8.613zM87.368 18.768v-0.314c0-1.066 0.155-2.055 0.465-2.967 0.31-0.921 0.756-1.718 1.34-2.393 0.592-0.684 1.312-1.212 2.16-1.586 0.857-0.383 1.823-0.574 2.898-0.574 1.085 0 2.051 0.191 2.898 0.574 0.857 0.374 1.581 0.902 2.174 1.586 0.592 0.674 1.044 1.472 1.354 2.393 0.31 0.911 0.465 1.9 0.465 2.967v0.314c0 1.066-0.155 2.055-0.465 2.967s-0.761 1.709-1.354 2.393c-0.592 0.674-1.312 1.203-2.16 1.586-0.848 0.374-1.809 0.561-2.885 0.561-1.085 0-2.055-0.187-2.912-0.561-0.848-0.383-1.568-0.911-2.16-1.586-0.592-0.684-1.044-1.481-1.353-2.393s-0.465-1.9-0.465-2.967zM90.662 18.453v0.314c0 0.665 0.068 1.294 0.205 1.887s0.351 1.112 0.642 1.559c0.292 0.447 0.665 0.798 1.121 1.053s0.998 0.383 1.627 0.383c0.611 0 1.139-0.128 1.586-0.383 0.456-0.255 0.829-0.606 1.121-1.053s0.506-0.966 0.643-1.559c0.146-0.592 0.219-1.221 0.219-1.887v-0.314c0-0.656-0.073-1.276-0.219-1.859-0.137-0.592-0.356-1.117-0.656-1.572-0.292-0.456-0.665-0.811-1.121-1.066-0.447-0.264-0.98-0.396-1.6-0.396s-1.158 0.132-1.613 0.396c-0.447 0.255-0.816 0.611-1.108 1.066s-0.506 0.98-0.642 1.572c-0.137 0.583-0.205 1.203-0.205 1.859zM126.578 18.891c-0.036 0.884-0.169 1.764-0.396 2.639s-0.574 1.673-1.039 2.393c-0.456 0.72-1.044 1.294-1.764 1.723s-1.586 0.643-2.598 0.643c-0.611 0-1.153-0.105-1.627-0.315-0.474-0.219-0.87-0.529-1.189-0.93-0.31-0.401-0.533-0.884-0.67-1.449-0.137-0.574-0.173-1.212-0.109-1.914l0.697-7.752h2.393l-0.684 7.752c-0.055 0.556-0.046 1.012 0.027 1.367 0.082 0.356 0.205 0.629 0.369 0.82s0.351 0.324 0.561 0.396c0.21 0.073 0.419 0.109 0.629 0.109 0.492 0 0.934-0.137 1.326-0.41 0.392-0.282 0.725-0.67 0.998-1.162 0.282-0.501 0.501-1.080 0.656-1.736 0.164-0.656 0.26-1.367 0.287-2.133 0.064-1.276 0.005-2.452-0.178-3.527-0.182-1.085-0.492-2.051-0.93-2.898-0.428-0.848-0.989-1.563-1.682-2.146-0.684-0.592-1.504-1.044-2.461-1.354s-2.051-0.465-3.281-0.465c-1.13 0-2.174 0.173-3.131 0.52s-1.814 0.848-2.57 1.504c-0.756 0.647-1.408 1.426-1.955 2.338-0.538 0.902-0.962 1.919-1.272 3.049-0.301 1.121-0.478 2.324-0.533 3.609-0.064 1.349 0.005 2.579 0.205 3.691 0.21 1.112 0.547 2.096 1.012 2.953s1.048 1.577 1.75 2.16c0.711 0.592 1.531 1.039 2.461 1.34 0.939 0.301 1.978 0.451 3.117 0.451 0.802 0 1.613-0.091 2.434-0.273 0.829-0.182 1.527-0.424 2.092-0.725l0.52 1.818c-0.638 0.41-1.436 0.715-2.393 0.916s-1.859 0.301-2.707 0.301c-1.413 0-2.707-0.182-3.883-0.547-1.167-0.364-2.201-0.902-3.104-1.613-0.893-0.702-1.636-1.563-2.229-2.584s-1.030-2.192-1.312-3.514-0.392-2.78-0.328-4.375c0.064-1.495 0.292-2.898 0.684-4.211 0.392-1.322 0.93-2.52 1.613-3.596 0.693-1.076 1.513-2.001 2.461-2.775 0.957-0.784 2.033-1.385 3.227-1.805s2.493-0.629 3.897-0.629c1.422 0 2.707 0.187 3.855 0.561s2.156 0.916 3.021 1.627c0.875 0.711 1.6 1.572 2.174 2.584s0.994 2.156 1.258 3.432c0.264 1.267 0.364 2.648 0.301 4.143zM112.674 20.189c-0.064 0.62-0.068 1.171-0.014 1.654 0.064 0.483 0.178 0.889 0.342 1.217 0.173 0.328 0.396 0.579 0.67 0.752s0.592 0.26 0.957 0.26c0.228 0 0.469-0.055 0.725-0.164 0.264-0.118 0.524-0.305 0.779-0.561s0.497-0.592 0.725-1.012c0.228-0.428 0.419-0.957 0.574-1.586l1.039 1.189c-0.21 0.711-0.474 1.34-0.793 1.887-0.319 0.538-0.679 0.989-1.080 1.353-0.401 0.356-0.834 0.629-1.299 0.82-0.465 0.182-0.948 0.273-1.449 0.273-0.665 0-1.258-0.146-1.777-0.437-0.51-0.292-0.93-0.702-1.258-1.231-0.328-0.538-0.561-1.176-0.697-1.914-0.137-0.747-0.164-1.581-0.082-2.502 0.091-0.939 0.264-1.809 0.519-2.611 0.264-0.802 0.588-1.518 0.971-2.146 0.392-0.629 0.834-1.162 1.326-1.6 0.492-0.447 1.021-0.784 1.586-1.012 0.574-0.237 1.162-0.355 1.764-0.355 1.030 0 1.837 0.146 2.42 0.438s1.135 0.633 1.654 1.025l-1.285 1.641c-0.264-0.246-0.611-0.479-1.039-0.697-0.419-0.219-0.921-0.328-1.504-0.328-0.519 0-0.993 0.118-1.422 0.355-0.419 0.237-0.788 0.597-1.107 1.080-0.319 0.474-0.588 1.062-0.807 1.764-0.21 0.702-0.355 1.518-0.437 2.447zM139.155 22.938v-17.938h3.309v21h-2.994l-0.315-3.062zM129.53 18.768v-0.287c0-1.121 0.132-2.142 0.397-3.063 0.264-0.93 0.647-1.727 1.148-2.393 0.501-0.674 1.112-1.189 1.832-1.545 0.72-0.365 1.531-0.547 2.434-0.547 0.893 0 1.677 0.173 2.352 0.52s1.249 0.843 1.723 1.49c0.474 0.638 0.852 1.404 1.135 2.297 0.283 0.884 0.483 1.868 0.602 2.953v0.916c-0.119 1.057-0.319 2.023-0.602 2.898s-0.661 1.632-1.135 2.27c-0.474 0.638-1.053 1.13-1.736 1.477-0.675 0.346-1.463 0.519-2.365 0.519-0.893 0-1.7-0.187-2.42-0.561-0.711-0.374-1.317-0.898-1.818-1.572s-0.884-1.467-1.148-2.379c-0.264-0.921-0.397-1.919-0.397-2.994zM132.825 18.48v0.287c0 0.674 0.059 1.303 0.178 1.887 0.128 0.583 0.323 1.098 0.588 1.545 0.264 0.438 0.606 0.784 1.025 1.039 0.428 0.246 0.939 0.369 1.531 0.369 0.747 0 1.363-0.164 1.846-0.492s0.861-0.77 1.135-1.326c0.282-0.565 0.474-1.194 0.574-1.887v-2.475c-0.055-0.538-0.169-1.039-0.342-1.504-0.164-0.465-0.387-0.87-0.67-1.217-0.283-0.355-0.633-0.629-1.053-0.82-0.41-0.201-0.898-0.301-1.463-0.301-0.602 0-1.112 0.128-1.531 0.383s-0.766 0.606-1.039 1.053c-0.264 0.447-0.46 0.966-0.588 1.559s-0.191 1.226-0.191 1.9zM152.991 26.273c-1.094 0-2.083-0.178-2.967-0.533-0.875-0.365-1.622-0.87-2.242-1.518-0.611-0.647-1.080-1.408-1.408-2.283s-0.492-1.818-0.492-2.83v-0.547c0-1.158 0.169-2.206 0.506-3.145s0.807-1.741 1.408-2.406c0.602-0.674 1.312-1.189 2.133-1.545s1.709-0.533 2.666-0.533c1.057 0 1.982 0.178 2.775 0.533s1.449 0.857 1.969 1.504c0.529 0.638 0.92 1.399 1.176 2.283 0.264 0.884 0.397 1.859 0.397 2.926v1.408h-11.43v-2.365h8.176v-0.26c-0.018-0.592-0.137-1.148-0.355-1.668-0.21-0.52-0.533-0.939-0.971-1.258s-1.021-0.479-1.75-0.479c-0.547 0-1.035 0.118-1.463 0.355-0.419 0.228-0.77 0.561-1.053 0.998s-0.501 0.966-0.656 1.586c-0.146 0.611-0.219 1.299-0.219 2.064v0.547c0 0.647 0.087 1.249 0.26 1.805 0.182 0.547 0.447 1.025 0.793 1.436s0.766 0.734 1.258 0.971c0.492 0.228 1.053 0.342 1.682 0.342 0.793 0 1.499-0.16 2.119-0.479s1.158-0.77 1.613-1.354l1.736 1.682c-0.319 0.465-0.734 0.911-1.244 1.34-0.51 0.419-1.135 0.761-1.873 1.025-0.729 0.264-1.577 0.396-2.543 0.396zM166.662 23.389l3.623-12.182h3.418l-5.141 14.793h-2.133l0.232-2.611zM163.887 11.207l3.691 12.236 0.178 2.557h-2.133l-5.168-14.793h3.432zM184.599 21.994c0-0.328-0.082-0.624-0.246-0.889-0.164-0.273-0.478-0.519-0.943-0.738-0.456-0.219-1.13-0.419-2.023-0.602-0.784-0.173-1.504-0.378-2.16-0.615-0.647-0.246-1.203-0.542-1.668-0.889s-0.825-0.757-1.080-1.23-0.383-1.021-0.383-1.641c0-0.602 0.132-1.171 0.397-1.709s0.643-1.012 1.135-1.422c0.492-0.41 1.089-0.734 1.791-0.971 0.711-0.237 1.504-0.355 2.379-0.355 1.24 0 2.301 0.21 3.186 0.629 0.893 0.41 1.577 0.971 2.051 1.682 0.474 0.702 0.711 1.495 0.711 2.379h-3.295c0-0.392-0.1-0.756-0.301-1.094-0.191-0.346-0.483-0.624-0.875-0.834-0.392-0.219-0.884-0.328-1.477-0.328-0.565 0-1.034 0.091-1.408 0.273-0.365 0.173-0.638 0.401-0.82 0.684-0.173 0.283-0.26 0.592-0.26 0.93 0 0.246 0.046 0.469 0.137 0.67 0.1 0.191 0.264 0.369 0.492 0.533 0.228 0.155 0.538 0.301 0.93 0.438 0.401 0.137 0.902 0.269 1.504 0.396 1.13 0.237 2.101 0.542 2.912 0.916 0.82 0.365 1.449 0.839 1.887 1.422 0.438 0.574 0.656 1.303 0.656 2.188 0 0.656-0.141 1.258-0.424 1.805-0.273 0.538-0.674 1.007-1.203 1.408-0.529 0.392-1.162 0.697-1.9 0.916-0.729 0.219-1.55 0.328-2.461 0.328-1.34 0-2.475-0.237-3.404-0.711-0.93-0.483-1.636-1.098-2.119-1.846-0.474-0.757-0.711-1.54-0.711-2.352h3.186c0.036 0.611 0.205 1.098 0.506 1.463 0.31 0.355 0.693 0.615 1.148 0.779 0.465 0.155 0.943 0.232 1.436 0.232 0.592 0 1.089-0.077 1.49-0.232 0.401-0.164 0.706-0.383 0.916-0.656 0.21-0.283 0.315-0.602 0.315-0.957zM198.052 11.207v2.406h-8.34v-2.406h8.34zM192.118 7.584h3.295v14.328c0 0.456 0.064 0.807 0.191 1.053 0.137 0.237 0.324 0.397 0.561 0.479s0.515 0.123 0.834 0.123c0.228 0 0.447-0.014 0.656-0.041s0.378-0.055 0.506-0.082l0.014 2.516c-0.273 0.082-0.592 0.155-0.957 0.219-0.356 0.064-0.766 0.096-1.231 0.096-0.756 0-1.426-0.132-2.010-0.396-0.583-0.273-1.039-0.716-1.367-1.326s-0.492-1.422-0.492-2.434v-14.533zM210.056 22.514v-11.307h3.308v14.793h-3.118l-0.19-3.486zM210.52 19.438l1.108-0.027c0 0.993-0.11 1.909-0.328 2.748-0.22 0.829-0.556 1.554-1.012 2.174-0.456 0.611-1.040 1.089-1.75 1.436-0.712 0.337-1.564 0.506-2.558 0.506-0.72 0-1.38-0.105-1.982-0.314s-1.12-0.533-1.558-0.971c-0.428-0.437-0.762-1.007-0.998-1.709-0.238-0.702-0.356-1.54-0.356-2.516v-9.557h3.296v9.584c0 0.538 0.064 0.989 0.19 1.354 0.128 0.355 0.302 0.643 0.52 0.861s0.474 0.374 0.766 0.465c0.292 0.091 0.602 0.137 0.93 0.137 0.938 0 1.676-0.182 2.214-0.547 0.548-0.374 0.934-0.875 1.162-1.504 0.238-0.629 0.356-1.335 0.356-2.119zM226.324 22.938v-17.938h3.308v21h-2.994l-0.314-3.062zM216.7 18.768v-0.287c0-1.121 0.132-2.142 0.396-3.063 0.264-0.93 0.646-1.727 1.148-2.393 0.502-0.674 1.112-1.189 1.832-1.545 0.72-0.365 1.532-0.547 2.434-0.547 0.892 0 1.676 0.173 2.352 0.52 0.674 0.346 1.248 0.843 1.722 1.49 0.474 0.638 0.852 1.404 1.134 2.297 0.284 0.884 0.484 1.868 0.602 2.953v0.916c-0.118 1.057-0.318 2.023-0.602 2.898-0.282 0.875-0.66 1.632-1.134 2.27s-1.052 1.13-1.736 1.477c-0.674 0.346-1.464 0.519-2.366 0.519-0.892 0-1.7-0.187-2.42-0.561-0.71-0.374-1.316-0.898-1.818-1.572s-0.884-1.467-1.148-2.379c-0.264-0.921-0.396-1.919-0.396-2.994zM219.994 18.48v0.287c0 0.674 0.060 1.303 0.178 1.887 0.128 0.583 0.324 1.098 0.588 1.545 0.264 0.438 0.606 0.784 1.026 1.039 0.428 0.246 0.938 0.369 1.53 0.369 0.748 0 1.362-0.164 1.846-0.492s0.862-0.77 1.134-1.326c0.284-0.565 0.474-1.194 0.574-1.887v-2.475c-0.054-0.538-0.168-1.039-0.34-1.504-0.164-0.465-0.388-0.87-0.67-1.217-0.284-0.355-0.634-0.629-1.054-0.82-0.41-0.201-0.898-0.301-1.462-0.301-0.602 0-1.112 0.128-1.532 0.383-0.418 0.255-0.766 0.606-1.038 1.053-0.266 0.447-0.462 0.966-0.588 1.559-0.128 0.592-0.192 1.226-0.192 1.9zM237.166 11.207v14.793h-3.31v-14.793h3.31zM233.638 7.324c0-0.501 0.164-0.916 0.492-1.244 0.338-0.337 0.802-0.506 1.394-0.506 0.584 0 1.044 0.169 1.382 0.506 0.336 0.328 0.506 0.743 0.506 1.244 0 0.492-0.17 0.902-0.506 1.23-0.338 0.328-0.798 0.492-1.382 0.492-0.592 0-1.056-0.164-1.394-0.492-0.328-0.328-0.492-0.738-0.492-1.23zM240.706 18.768v-0.314c0-1.066 0.154-2.055 0.464-2.967 0.31-0.921 0.758-1.718 1.34-2.393 0.592-0.684 1.312-1.212 2.16-1.586 0.858-0.383 1.824-0.574 2.9-0.574 1.084 0 2.050 0.191 2.898 0.574 0.856 0.374 1.58 0.902 2.174 1.586 0.592 0.674 1.042 1.472 1.352 2.393 0.31 0.911 0.466 1.9 0.466 2.967v0.314c0 1.066-0.156 2.055-0.466 2.967s-0.76 1.709-1.352 2.393c-0.594 0.674-1.314 1.203-2.16 1.586-0.848 0.374-1.81 0.561-2.886 0.561-1.084 0-2.054-0.187-2.912-0.561-0.848-0.383-1.568-0.911-2.16-1.586-0.592-0.684-1.044-1.481-1.354-2.393s-0.464-1.9-0.464-2.967zM244 18.453v0.314c0 0.665 0.070 1.294 0.206 1.887s0.35 1.112 0.642 1.559c0.292 0.447 0.666 0.798 1.122 1.053s0.998 0.383 1.626 0.383c0.612 0 1.14-0.128 1.586-0.383 0.456-0.255 0.83-0.606 1.122-1.053s0.506-0.966 0.642-1.559c0.146-0.592 0.218-1.221 0.218-1.887v-0.314c0-0.656-0.072-1.276-0.218-1.859-0.136-0.592-0.356-1.117-0.656-1.572-0.292-0.456-0.666-0.811-1.122-1.066-0.446-0.264-0.98-0.396-1.598-0.396-0.62 0-1.158 0.132-1.614 0.396-0.446 0.255-0.816 0.611-1.108 1.066s-0.506 0.98-0.642 1.572c-0.136 0.583-0.206 1.203-0.206 1.859zM257.918 24.359c0-0.51 0.174-0.939 0.52-1.285 0.346-0.355 0.816-0.533 1.408-0.533 0.602 0 1.070 0.178 1.408 0.533 0.346 0.346 0.52 0.775 0.52 1.285s-0.174 0.939-0.52 1.285c-0.338 0.346-0.806 0.519-1.408 0.519-0.592 0-1.062-0.173-1.408-0.519s-0.52-0.775-0.52-1.285zM272.178 23.648c0.538 0 1.020-0.105 1.448-0.314 0.438-0.219 0.788-0.52 1.054-0.902 0.272-0.383 0.424-0.825 0.45-1.326h3.104c-0.018 0.957-0.3 1.828-0.848 2.611-0.546 0.784-1.272 1.408-2.174 1.873-0.902 0.456-1.9 0.684-2.994 0.684-1.13 0-2.114-0.191-2.952-0.574-0.84-0.392-1.536-0.93-2.092-1.613s-0.976-1.472-1.258-2.365c-0.274-0.893-0.41-1.85-0.41-2.871v-0.479c0-1.021 0.136-1.978 0.41-2.871 0.282-0.902 0.702-1.695 1.258-2.379s1.252-1.217 2.092-1.6c0.838-0.392 1.818-0.588 2.938-0.588 1.186 0 2.224 0.237 3.118 0.711 0.894 0.465 1.594 1.117 2.106 1.955 0.518 0.829 0.788 1.796 0.806 2.898h-3.104c-0.026-0.547-0.164-1.039-0.41-1.477-0.236-0.447-0.574-0.802-1.012-1.066-0.428-0.264-0.942-0.396-1.544-0.396-0.666 0-1.218 0.137-1.654 0.41-0.438 0.264-0.78 0.629-1.026 1.094-0.246 0.456-0.424 0.971-0.534 1.545-0.1 0.565-0.15 1.153-0.15 1.764v0.479c0 0.611 0.050 1.203 0.15 1.777 0.102 0.574 0.274 1.089 0.52 1.545 0.256 0.447 0.602 0.807 1.040 1.080 0.436 0.264 0.992 0.396 1.668 0.396zM280.694 18.768v-0.314c0-1.066 0.156-2.055 0.466-2.967 0.31-0.921 0.756-1.718 1.34-2.393 0.592-0.684 1.312-1.212 2.16-1.586 0.856-0.383 1.822-0.574 2.898-0.574 1.084 0 2.050 0.191 2.898 0.574 0.856 0.374 1.582 0.902 2.174 1.586 0.592 0.674 1.044 1.472 1.354 2.393 0.31 0.911 0.464 1.9 0.464 2.967v0.314c0 1.066-0.154 2.055-0.464 2.967s-0.762 1.709-1.354 2.393c-0.592 0.674-1.312 1.203-2.16 1.586-0.848 0.374-1.81 0.561-2.884 0.561-1.086 0-2.056-0.187-2.914-0.561-0.846-0.383-1.566-0.911-2.16-1.586-0.592-0.684-1.042-1.481-1.352-2.393s-0.466-1.9-0.466-2.967zM283.99 18.453v0.314c0 0.665 0.068 1.294 0.204 1.887 0.138 0.593 0.352 1.112 0.642 1.559 0.292 0.447 0.666 0.798 1.122 1.053s0.998 0.383 1.628 0.383c0.61 0 1.138-0.128 1.584-0.383 0.456-0.255 0.83-0.606 1.122-1.053s0.506-0.966 0.642-1.559c0.146-0.592 0.22-1.221 0.22-1.887v-0.314c0-0.656-0.074-1.276-0.22-1.859-0.136-0.592-0.354-1.117-0.656-1.572-0.292-0.456-0.664-0.811-1.12-1.066-0.448-0.264-0.98-0.396-1.6-0.396s-1.158 0.132-1.614 0.396c-0.446 0.255-0.816 0.611-1.108 1.066-0.29 0.456-0.504 0.98-0.642 1.572-0.136 0.583-0.204 1.203-0.204 1.859zM301.064 14.215v11.785h-3.294v-14.793h3.104l0.19 3.008zM300.532 18.057l-1.122-0.014c0-1.021 0.128-1.964 0.384-2.83 0.254-0.866 0.628-1.618 1.12-2.256 0.492-0.647 1.104-1.144 1.832-1.49 0.738-0.355 1.592-0.533 2.558-0.533 0.674 0 1.288 0.1 1.844 0.301 0.566 0.191 1.054 0.497 1.464 0.916 0.42 0.419 0.738 0.957 0.956 1.613 0.228 0.656 0.342 1.449 0.342 2.379v9.857h-3.294v-9.57c0-0.72-0.11-1.285-0.328-1.695-0.21-0.41-0.516-0.702-0.916-0.875-0.392-0.182-0.862-0.273-1.408-0.273-0.62 0-1.15 0.118-1.586 0.355-0.428 0.237-0.78 0.561-1.054 0.971-0.272 0.41-0.474 0.884-0.6 1.422-0.128 0.538-0.192 1.112-0.192 1.723zM309.706 17.182l-1.546 0.342c0-0.893 0.124-1.736 0.37-2.529 0.254-0.802 0.624-1.504 1.108-2.105 0.492-0.611 1.098-1.089 1.818-1.436s1.544-0.52 2.474-0.52c0.756 0 1.432 0.105 2.024 0.314 0.602 0.201 1.112 0.52 1.53 0.957 0.42 0.438 0.74 1.007 0.958 1.709 0.218 0.693 0.328 1.531 0.328 2.516v9.57h-3.308v-9.584c0-0.747-0.11-1.326-0.328-1.736-0.21-0.41-0.512-0.693-0.904-0.848-0.39-0.164-0.86-0.246-1.408-0.246-0.51 0-0.96 0.096-1.352 0.287-0.384 0.182-0.708 0.442-0.972 0.779-0.264 0.328-0.464 0.706-0.602 1.135-0.126 0.428-0.19 0.893-0.19 1.395z"></path>
<path fill="#757575" style="fill: var(--color4, #757575)" d="M29 4h-26c-1.654 0-3 1.346-3 3v18c0 1.654 1.346 3 3 3h26c1.654 0 3-1.346 3-3v-18c0-1.654-1.346-3-3-3zM29 6c0.136 0 0.265 0.028 0.383 0.077l-13.383 11.599-13.383-11.599c0.118-0.049 0.247-0.077 0.383-0.077h26zM29 26h-26c-0.552 0-1-0.448-1-1v-16.81l13.345 11.565c0.188 0.163 0.422 0.244 0.655 0.244s0.467-0.081 0.655-0.244l13.345-11.565v16.81c0 0.552-0.448 1-1 1z"></path>
</symbol>
<symbol id="icon-Tel" viewBox="0 0 260 32">
<path fill="#757575" style="fill: var(--color4, #757575)" d="M49.379 15.049h5.195v3.035h-5.195v5.92h-3.227v-5.92h-5.223v-3.035h5.223v-5.537h3.227v5.537zM68.902 18.904h2.475v2.666h-2.475v4.43h-3.322v-4.43h-8.6l-0.096-2.024 8.586-13.453h3.432v12.811zM60.371 18.904h5.209v-8.313l-0.246 0.438-4.963 7.875zM86.675 11.344c0 0.975-0.251 1.846-0.752 2.611-0.501 0.756-1.185 1.354-2.051 1.791 1.039 0.483 1.837 1.144 2.393 1.982 0.565 0.839 0.848 1.786 0.848 2.844 0 1.75-0.592 3.14-1.777 4.17-1.185 1.021-2.762 1.531-4.73 1.531-1.978 0-3.564-0.515-4.758-1.545-1.185-1.030-1.777-2.415-1.777-4.156 0-1.066 0.283-2.023 0.848-2.871s1.358-1.499 2.379-1.955c-0.857-0.438-1.536-1.035-2.037-1.791-0.492-0.766-0.738-1.636-0.738-2.611 0-1.695 0.547-3.040 1.641-4.033s2.57-1.49 4.43-1.49c1.868 0 3.35 0.497 4.443 1.49s1.641 2.338 1.641 4.033zM83.79 20.408c0-0.984-0.296-1.777-0.889-2.379-0.583-0.611-1.358-0.916-2.324-0.916s-1.741 0.301-2.324 0.902c-0.574 0.602-0.861 1.399-0.861 2.393 0 0.975 0.283 1.755 0.848 2.338 0.574 0.583 1.363 0.875 2.365 0.875s1.782-0.282 2.338-0.848c0.565-0.565 0.848-1.353 0.848-2.365zM83.366 11.467c0-0.866-0.251-1.577-0.752-2.133-0.501-0.565-1.176-0.848-2.023-0.848s-1.518 0.269-2.010 0.807c-0.492 0.529-0.738 1.253-0.738 2.174 0 0.911 0.246 1.636 0.738 2.174 0.501 0.538 1.176 0.807 2.023 0.807s1.518-0.269 2.010-0.807c0.501-0.538 0.752-1.262 0.752-2.174zM107.14 26h-3.309v-15.982l-4.881 1.668v-2.803l7.766-2.857h0.424v19.975zM123.614 26h-3.309v-15.982l-4.881 1.668v-2.803l7.766-2.857h0.424v19.975zM140.089 26h-3.309v-15.982l-4.881 1.668v-2.803l7.766-2.857h0.424v19.975zM164.095 26h-3.309v-15.982l-4.881 1.668v-2.803l7.766-2.857h0.424v19.975zM180.569 26h-3.309v-15.982l-4.881 1.668v-2.803l7.766-2.857h0.424v19.975zM197.043 26h-3.309v-15.982l-4.881 1.668v-2.803l7.766-2.857h0.424v19.975zM221.050 26h-3.308v-15.982l-4.882 1.668v-2.803l7.766-2.857h0.424v19.975zM237.524 26h-3.308v-15.982l-4.882 1.668v-2.803l7.766-2.857h0.424v19.975zM253.998 26h-3.308v-15.982l-4.882 1.668v-2.803l7.766-2.857h0.424v19.975z"></path>
<path fill="#757575" style="fill: var(--color4, #757575)" d="M17 0h-14c-1.654 0-3 1.346-3 3v26c0 1.654 1.346 3 3 3h14c1.654 0 3-1.346 3-3v-26c0-1.654-1.346-3-3-3zM3 2h14c0.552 0 1 0.448 1 1v21h-16v-21c0-0.552 0.448-1 1-1zM17 30h-14c-0.552 0-1-0.448-1-1v-3h16v3c0 0.552-0.448 1-1 1z"></path>
<path fill="#757575" style="fill: var(--color4, #757575)" d="M4.707 27.478c0.391 0.365 0.391 0.956 0 1.321s-1.024 0.365-1.414 0c-0.391-0.365-0.391-0.956 0-1.321s1.024-0.365 1.414 0z"></path>
</symbol>
<symbol id="icon-envelope" viewBox="0 0 43 32">
<path fill="#2196f3" style="fill: var(--color3, #2196f3)" d="M38.667 0h-34.667c-2.206 0-4 1.794-4 4v24c0 2.206 1.794 4 4 4h34.667c2.206 0 4-1.794 4-4v-24c0-2.206-1.794-4-4-4zM38.667 2.667c0.181 0 0.353 0.038 0.511 0.103l-17.844 15.466-17.844-15.466c0.158-0.066 0.33-0.103 0.511-0.103h34.667zM38.667 29.333h-34.667c-0.736 0-1.333-0.598-1.333-1.333v-22.413l17.793 15.421c0.251 0.217 0.563 0.326 0.874 0.326s0.622-0.108 0.874-0.326l17.793-15.421v22.413c0 0.736-0.598 1.333-1.333 1.333z"></path>
</symbol>
<symbol id="icon-Header-1" viewBox="0 0 85 32">
<path fill="#000" style="fill: var(--color5, #000)" d="M0 0h85.333v32h-85.333v-32z"></path>
<path fill="#2f303a" style="fill: var(--color6, #2f303a)" opacity="0.4" d="M0 0h85.333v32h-85.333v-32z"></path>
<path fill="#fff" style="fill: var(--color1, #fff)" d="M27.381 12.36h-0.632v0.398h0.747v0.309h-1.149v-1.668h1.152v0.31h-0.749v0.352h0.632v0.299zM28.851 12.402h-0.649v0.665h-0.402v-1.668h1.116v0.31h-0.714v0.384h0.649v0.309zM30.259 12.36h-0.633v0.398h0.747v0.309h-1.149v-1.668h1.152v0.31h-0.749v0.352h0.633v0.299zM31.245 12.446l-0.165 0.181v0.44h-0.402v-1.668h0.402v0.736l0.14-0.212 0.36-0.524h0.497l-0.564 0.738 0.564 0.93h-0.477l-0.355-0.621zM33.63 11.709h-0.501v1.358h-0.402v-1.358h-0.492v-0.31h1.395v0.31zM34.57 12.123l0.307-0.724h0.434l-0.537 1.069v0.599h-0.408v-0.599l-0.536-1.069h0.432l0.308 0.724zM36.887 12.444l0.191-1.046h0.399l-0.354 1.668h-0.417l-0.223-0.951-0.219 0.951h-0.416l-0.355-1.668h0.4l0.191 1.046 0.229-1.046h0.341l0.233 1.046zM39.168 13.067h-0.4l-0.591-1.038v1.038h-0.402v-1.668h0.402l0.59 1.038v-1.038h0.401v1.668zM40.598 12.36h-0.632v0.398h0.747v0.309h-1.149v-1.668h1.152v0.31h-0.749v0.352h0.632v0.299zM42.362 12.478h-0.218v0.589h-0.402v-1.668h0.657c0.198 0 0.353 0.044 0.464 0.132s0.167 0.212 0.167 0.372c0 0.116-0.024 0.212-0.071 0.289s-0.12 0.138-0.22 0.186l0.348 0.673v0.017h-0.431l-0.294-0.589zM42.145 12.167h0.254c0.076 0 0.134-0.020 0.172-0.060s0.058-0.097 0.058-0.168c0-0.072-0.019-0.128-0.058-0.168s-0.096-0.062-0.172-0.062h-0.254v0.458zM44.827 12.267c0 0.163-0.030 0.307-0.091 0.432s-0.146 0.222-0.258 0.29c-0.111 0.067-0.237 0.101-0.379 0.101s-0.268-0.032-0.378-0.097c-0.11-0.066-0.196-0.159-0.258-0.281s-0.093-0.261-0.096-0.418v-0.094c0-0.163 0.030-0.307 0.089-0.432s0.146-0.222 0.258-0.29c0.112-0.068 0.24-0.102 0.383-0.102 0.141 0 0.267 0.034 0.378 0.101s0.197 0.163 0.258 0.288c0.062 0.124 0.093 0.266 0.094 0.426v0.077zM44.418 12.197c0-0.166-0.028-0.291-0.084-0.377s-0.134-0.13-0.237-0.13c-0.202 0-0.308 0.151-0.32 0.454l-0.001 0.123c0 0.163 0.027 0.289 0.081 0.377s0.135 0.132 0.242 0.132c0.102 0 0.18-0.043 0.235-0.13s0.083-0.21 0.084-0.372v-0.077zM45.599 12.757h0.798v0.309h-1.299v-0.212l0.795-1.146h-0.8v-0.31h1.296v0.206l-0.789 1.153zM48.013 12.444l0.191-1.046h0.399l-0.354 1.668h-0.417l-0.223-0.951-0.219 0.951h-0.416l-0.355-1.668h0.4l0.191 1.046 0.229-1.046h0.341l0.233 1.046zM49.33 13.067h-0.401v-1.668h0.401v1.668zM50.631 11.398l0.616 1.668h-0.123c-0.060 0.030-0.102 0.058-0.128 0.085s-0.038 0.061-0.038 0.1c0 0.047 0.023 0.071 0.069 0.071 0.023 0 0.049-0.007 0.079-0.021l0.044 0.193c-0.056 0.034-0.119 0.050-0.19 0.050-0.084 0-0.152-0.022-0.203-0.066s-0.076-0.104-0.076-0.179c0-0.099 0.044-0.181 0.131-0.244l-0.094-0.3h-0.551l-0.096 0.312h-0.43l0.612-1.668h0.378zM50.264 12.444h0.359l-0.18-0.579-0.179 0.579zM51.963 12.757h0.797v0.309h-1.299v-0.212l0.795-1.146h-0.8v-0.31h1.296v0.206l-0.789 1.153zM54.048 12.755h-0.551l-0.096 0.312h-0.43l0.612-1.668h0.378l0.616 1.668h-0.432l-0.097-0.312zM53.593 12.444h0.358l-0.18-0.579-0.179 0.579zM56.234 13.067h-0.4l-0.591-1.038v1.038h-0.402v-1.668h0.402l0.59 1.038v-1.038h0.401v1.668zM57.058 13.067h-0.401v-1.668h0.401v1.668zM58.446 12.755h-0.551l-0.097 0.312h-0.43l0.612-1.668h0.378l0.616 1.668h-0.431l-0.098-0.312zM57.991 12.444h0.358l-0.18-0.579-0.179 0.579zM28.331 16.267v-1.668h0.537c0.147 0 0.28 0.034 0.398 0.101s0.209 0.161 0.275 0.283c0.066 0.121 0.1 0.258 0.101 0.409v0.077c0 0.153-0.032 0.29-0.097 0.411s-0.155 0.215-0.273 0.284c-0.117 0.068-0.248 0.102-0.392 0.103h-0.549zM28.733 14.909v1.048h0.14c0.115 0 0.204-0.041 0.266-0.123s0.093-0.205 0.093-0.367v-0.072c0-0.161-0.031-0.283-0.093-0.364s-0.152-0.123-0.27-0.123h-0.135zM30.391 15.957h0.7v0.309h-1.102v-1.668h0.402v1.359zM32.372 15.955h-0.551l-0.096 0.312h-0.43l0.612-1.668h0.378l0.616 1.668h-0.432l-0.097-0.312zM31.917 15.644h0.359l-0.18-0.579-0.179 0.579zM35.182 15.644l0.191-1.046h0.399l-0.354 1.668h-0.417l-0.223-0.951-0.219 0.951h-0.416l-0.355-1.668h0.4l0.191 1.046 0.229-1.046h0.341l0.233 1.046zM36.967 15.955h-0.551l-0.096 0.312h-0.43l0.612-1.668h0.378l0.616 1.668h-0.432l-0.097-0.312zM36.512 15.644h0.359l-0.18-0.579-0.179 0.579zM38.621 15.823c0-0.059-0.021-0.105-0.063-0.138s-0.114-0.067-0.219-0.102-0.19-0.069-0.257-0.102c-0.216-0.106-0.324-0.252-0.324-0.438 0-0.092 0.027-0.174 0.080-0.244s0.131-0.126 0.229-0.165c0.099-0.040 0.209-0.060 0.332-0.060 0.12 0 0.227 0.021 0.322 0.064s0.17 0.104 0.222 0.183c0.053 0.079 0.079 0.169 0.079 0.27h-0.401c0-0.068-0.021-0.121-0.063-0.158s-0.097-0.056-0.168-0.056c-0.072 0-0.129 0.016-0.171 0.048s-0.062 0.071-0.062 0.12c0 0.043 0.023 0.082 0.069 0.117s0.126 0.070 0.242 0.108c0.115 0.037 0.21 0.076 0.284 0.119 0.18 0.104 0.27 0.247 0.27 0.43 0 0.146-0.055 0.26-0.165 0.344s-0.261 0.125-0.453 0.125c-0.135 0-0.258-0.024-0.368-0.072s-0.192-0.115-0.247-0.199c-0.055-0.085-0.083-0.182-0.083-0.292h0.403c0 0.089 0.023 0.155 0.069 0.198s0.122 0.063 0.226 0.063c0.066 0 0.119-0.014 0.157-0.042s0.058-0.069 0.058-0.121zM39.821 15.957h0.797v0.309h-1.299v-0.212l0.795-1.146h-0.8v-0.31h1.296v0.206l-0.789 1.153zM41.978 15.56h-0.632v0.398h0.747v0.309h-1.149v-1.668h1.152v0.31h-0.749v0.352h0.632v0.299zM43.763 16.060c-0.062 0.069-0.152 0.124-0.272 0.166s-0.25 0.063-0.392 0.063c-0.218 0-0.393-0.067-0.524-0.201s-0.2-0.32-0.21-0.558l-0.001-0.144c0-0.164 0.029-0.307 0.087-0.43s0.141-0.217 0.249-0.283c0.108-0.066 0.234-0.1 0.376-0.1 0.208 0 0.369 0.048 0.484 0.143s0.183 0.236 0.202 0.425h-0.387c-0.014-0.093-0.044-0.16-0.089-0.199s-0.111-0.060-0.195-0.060c-0.101 0-0.179 0.043-0.234 0.128s-0.083 0.208-0.084 0.367v0.101c0 0.167 0.028 0.292 0.085 0.376s0.147 0.125 0.269 0.125c0.105 0 0.183-0.023 0.234-0.070v-0.259h-0.28v-0.276h0.682v0.685zM45.55 15.467c0 0.163-0.030 0.307-0.090 0.432s-0.146 0.222-0.258 0.29c-0.111 0.067-0.237 0.101-0.379 0.101s-0.268-0.032-0.378-0.097c-0.11-0.066-0.196-0.159-0.258-0.281s-0.093-0.261-0.096-0.418v-0.094c0-0.163 0.030-0.307 0.089-0.432s0.146-0.222 0.258-0.29c0.112-0.068 0.24-0.102 0.383-0.102 0.141 0 0.267 0.034 0.378 0.101s0.197 0.163 0.258 0.288c0.062 0.124 0.093 0.266 0.094 0.426v0.077zM45.141 15.397c0-0.166-0.028-0.291-0.084-0.377s-0.134-0.13-0.237-0.13c-0.202 0-0.308 0.151-0.32 0.454l-0.001 0.123c0 0.163 0.027 0.289 0.081 0.377s0.135 0.132 0.242 0.132c0.102 0 0.18-0.043 0.235-0.13s0.083-0.21 0.084-0.372v-0.077zM46.623 16.267v-1.668h0.599c0.215 0 0.378 0.039 0.489 0.118s0.168 0.193 0.168 0.343c0 0.086-0.020 0.16-0.060 0.221s-0.098 0.106-0.175 0.135c0.087 0.023 0.154 0.066 0.201 0.128s0.070 0.139 0.070 0.229c0 0.163-0.052 0.286-0.156 0.369s-0.256 0.123-0.459 0.125h-0.677zM47.026 15.557v0.4h0.264c0.073 0 0.128-0.016 0.167-0.049s0.058-0.081 0.058-0.141c0-0.139-0.069-0.209-0.207-0.21h-0.282zM47.026 15.294h0.21c0.088-0.001 0.15-0.017 0.188-0.048s0.056-0.078 0.056-0.139c0-0.070-0.020-0.121-0.061-0.151s-0.106-0.047-0.196-0.047h-0.197v0.385zM48.708 16.267h-0.401v-1.668h0.401v1.668zM49.579 15.957h0.798v0.309h-1.299v-0.212l0.795-1.146h-0.8v-0.31h1.296v0.206l-0.789 1.153zM52.094 16.267h-0.4l-0.591-1.038v1.038h-0.402v-1.668h0.402l0.59 1.038v-1.038h0.401v1.668zM53.524 15.56h-0.632v0.398h0.747v0.309h-1.149v-1.668h1.151v0.31h-0.749v0.352h0.632v0.299zM54.804 15.823c0-0.059-0.021-0.105-0.063-0.138-0.041-0.033-0.114-0.067-0.219-0.102s-0.19-0.069-0.257-0.102c-0.217-0.106-0.324-0.252-0.324-0.438 0-0.092 0.027-0.174 0.080-0.244 0.054-0.071 0.131-0.126 0.229-0.165s0.209-0.060 0.332-0.060c0.12 0 0.227 0.021 0.322 0.064s0.17 0.104 0.222 0.183c0.053 0.079 0.079 0.169 0.079 0.27h-0.401c0-0.068-0.021-0.121-0.063-0.158s-0.098-0.056-0.169-0.056c-0.072 0-0.129 0.016-0.171 0.048s-0.062 0.071-0.062 0.12c0 0.043 0.023 0.082 0.068 0.117s0.127 0.070 0.242 0.108c0.115 0.037 0.21 0.076 0.284 0.119 0.18 0.104 0.27 0.247 0.27 0.43 0 0.146-0.055 0.26-0.165 0.344s-0.261 0.125-0.452 0.125c-0.135 0-0.258-0.024-0.368-0.072s-0.192-0.115-0.247-0.199c-0.055-0.085-0.083-0.182-0.083-0.292h0.403c0 0.089 0.023 0.155 0.069 0.198 0.047 0.042 0.122 0.063 0.226 0.063 0.066 0 0.118-0.014 0.157-0.042s0.059-0.069 0.059-0.121zM56.862 14.598v1.092c0 0.124-0.027 0.231-0.079 0.322s-0.129 0.159-0.227 0.206-0.215 0.071-0.349 0.071c-0.203 0-0.363-0.053-0.48-0.158s-0.177-0.25-0.179-0.433v-1.1h0.404v1.108c0.005 0.183 0.090 0.274 0.254 0.274 0.083 0 0.146-0.023 0.189-0.069s0.065-0.12 0.065-0.223v-1.090h0.402z"></path>
<path fill="#2196f3" style="fill: var(--color3, #2196f3)" d="M37.547 18.667h10.24c0.118 0 0.213 0.096 0.213 0.213v2.24c0 0.118-0.096 0.213-0.213 0.213h-10.24c-0.118 0-0.213-0.096-0.213-0.213v-2.24c0-0.118 0.096-0.213 0.213-0.213z"></path>
<path fill="#fff" style="fill: var(--color1, #fff)" d="M39.778 20.166h0.306v0.1h-0.462v-0.073l0.3-0.432h-0.3v-0.101h0.455v0.072l-0.299 0.435zM40.468 20.267c-0.006-0.011-0.010-0.024-0.012-0.040-0.029 0.033-0.067 0.049-0.114 0.049-0.044 0-0.081-0.013-0.11-0.038s-0.043-0.058-0.043-0.097c0-0.048 0.018-0.084 0.053-0.11s0.087-0.038 0.154-0.039h0.055v-0.026c0-0.021-0.005-0.038-0.016-0.050s-0.027-0.019-0.050-0.019c-0.020 0-0.036 0.005-0.048 0.015s-0.017 0.023-0.017 0.040h-0.12c0-0.026 0.008-0.050 0.024-0.072s0.039-0.040 0.068-0.052c0.029-0.013 0.063-0.019 0.099-0.019 0.056 0 0.1 0.014 0.132 0.042s0.049 0.067 0.049 0.117v0.195c0 0.043 0.006 0.075 0.018 0.097v0.007h-0.122zM40.368 20.183c0.018 0 0.034-0.004 0.049-0.012s0.026-0.019 0.033-0.032v-0.078h-0.045c-0.060 0-0.092 0.021-0.096 0.063l-0 0.007c0 0.015 0.005 0.027 0.016 0.037s0.025 0.015 0.043 0.015zM40.828 19.816l0.004 0.050c0.032-0.039 0.075-0.059 0.13-0.059 0.058 0 0.098 0.023 0.12 0.069 0.032-0.046 0.077-0.069 0.135-0.069 0.049 0 0.085 0.014 0.109 0.043s0.036 0.071 0.036 0.128v0.288h-0.121v-0.288c0-0.026-0.005-0.044-0.015-0.056s-0.028-0.018-0.053-0.018c-0.036 0-0.061 0.017-0.075 0.052l0 0.31h-0.12v-0.287c0-0.026-0.005-0.045-0.015-0.057s-0.028-0.017-0.052-0.017c-0.034 0-0.059 0.014-0.074 0.042v0.319h-0.12v-0.451h0.113zM41.487 20.037c0-0.045 0.009-0.085 0.026-0.12s0.042-0.062 0.074-0.081c0.033-0.019 0.070-0.029 0.113-0.029 0.061 0 0.11 0.019 0.149 0.056s0.060 0.088 0.065 0.152l0.001 0.031c0 0.069-0.019 0.125-0.058 0.167s-0.090 0.063-0.155 0.063c-0.065 0-0.117-0.021-0.156-0.063s-0.058-0.098-0.058-0.17v-0.005zM41.607 20.046c0 0.043 0.008 0.076 0.024 0.098s0.039 0.034 0.069 0.034c0.029 0 0.052-0.011 0.068-0.033s0.025-0.058 0.025-0.108c0-0.042-0.008-0.074-0.025-0.098s-0.039-0.035-0.069-0.035c-0.029 0-0.052 0.012-0.068 0.035s-0.024 0.058-0.024 0.106zM41.723 19.627h0.131l-0.115 0.129h-0.098l0.082-0.129zM42.431 20.103l0.059-0.287h0.116l-0.115 0.451h-0.101l-0.085-0.284-0.085 0.284h-0.1l-0.115-0.451h0.116l0.059 0.287 0.083-0.287h0.087l0.082 0.287zM43.251 20.221c-0.030 0.036-0.071 0.054-0.123 0.054-0.048 0-0.085-0.014-0.111-0.042s-0.038-0.068-0.039-0.122v-0.295h0.12v0.291c0 0.047 0.021 0.070 0.064 0.070 0.041 0 0.069-0.014 0.084-0.043v-0.319h0.121v0.451h-0.113l-0.003-0.046zM43.754 20.142c0-0.015-0.007-0.026-0.022-0.035s-0.038-0.016-0.070-0.023c-0.107-0.023-0.161-0.068-0.161-0.137 0-0.040 0.017-0.073 0.050-0.1s0.077-0.040 0.13-0.040c0.057 0 0.103 0.013 0.137 0.040s0.052 0.062 0.052 0.105h-0.12c0-0.017-0.006-0.031-0.017-0.043s-0.028-0.017-0.052-0.017c-0.020 0-0.036 0.005-0.047 0.014s-0.017 0.021-0.017 0.035c0 0.013 0.006 0.024 0.019 0.032s0.034 0.015 0.064 0.021c0.030 0.006 0.055 0.012 0.076 0.020 0.064 0.023 0.095 0.064 0.095 0.121 0 0.041-0.018 0.074-0.053 0.1s-0.081 0.038-0.137 0.038c-0.038 0-0.071-0.007-0.101-0.020s-0.052-0.032-0.069-0.055c-0.017-0.024-0.025-0.049-0.025-0.076h0.114c0.001 0.021 0.009 0.038 0.024 0.049s0.034 0.017 0.059 0.017c0.023 0 0.040-0.004 0.052-0.013s0.018-0.020 0.018-0.035zM44.142 19.888l0.059-0.020v0.069l-0.059 0.020v0.31h-0.12v-0.27l-0.055 0.018v-0.069l0.055-0.018v-0.301h0.12v0.261zM44.583 20.221c-0.030 0.036-0.071 0.054-0.123 0.054-0.048 0-0.085-0.014-0.111-0.042s-0.038-0.068-0.039-0.122v-0.295h0.12v0.291c0 0.047 0.021 0.070 0.064 0.070 0.041 0 0.069-0.014 0.084-0.043v-0.319h0.121v0.451h-0.113l-0.003-0.046zM44.824 20.038c0-0.069 0.016-0.125 0.049-0.167s0.078-0.063 0.133-0.063c0.049 0 0.088 0.017 0.115 0.051l0.005-0.043h0.109v0.436c0 0.039-0.009 0.074-0.027 0.103s-0.043 0.051-0.075 0.067c-0.033 0.015-0.071 0.023-0.114 0.023-0.033 0-0.065-0.007-0.097-0.020s-0.055-0.030-0.071-0.051l0.053-0.073c0.030 0.034 0.066 0.050 0.109 0.050 0.032 0 0.057-0.009 0.075-0.026s0.027-0.041 0.027-0.072v-0.024c-0.028 0.031-0.064 0.047-0.11 0.047-0.054 0-0.098-0.021-0.132-0.063s-0.050-0.099-0.050-0.169v-0.005zM44.944 20.047c0 0.041 0.008 0.073 0.025 0.096s0.039 0.035 0.067 0.035c0.037 0 0.063-0.014 0.079-0.041v-0.19c-0.016-0.028-0.042-0.041-0.078-0.041-0.029 0-0.052 0.012-0.068 0.035s-0.025 0.059-0.025 0.106zM45.587 20.275c-0.066 0-0.12-0.020-0.162-0.061s-0.062-0.095-0.062-0.162v-0.012c0-0.045 0.009-0.086 0.026-0.121s0.042-0.063 0.074-0.082c0.032-0.019 0.069-0.029 0.11-0.029 0.062 0 0.11 0.019 0.145 0.058s0.053 0.094 0.053 0.165v0.049h-0.287c0.004 0.029 0.016 0.053 0.035 0.071s0.045 0.027 0.075 0.027c0.046 0 0.083-0.017 0.109-0.050l0.059 0.066c-0.018 0.026-0.042 0.046-0.073 0.060s-0.065 0.021-0.102 0.021zM45.574 19.905c-0.024 0-0.043 0.008-0.058 0.024s-0.024 0.039-0.028 0.069h0.167v-0.010c-0.001-0.027-0.008-0.047-0.022-0.062s-0.034-0.022-0.059-0.022z"></path>
</symbol>
<symbol id="icon-Group-4" viewBox="0 0 72 32">
<path fill="#f5f4fa" style="fill: var(--color7, #f5f4fa)" d="M1.067 0h69.867c0.589 0 1.067 0.478 1.067 1.067v29.867c0 0.589-0.478 1.067-1.067 1.067h-69.867c-0.589 0-1.067-0.478-1.067-1.067v-29.867c0-0.589 0.478-1.067 1.067-1.067z"></path>
<path fill="#2196f3" style="fill: var(--color3, #2196f3)" d="M45.318 9.306c-0.037-0.112-0.134-0.194-0.251-0.212l-1.114-0.162-0.499-1.010c-0.105-0.213-0.453-0.213-0.558 0l-0.499 1.010-1.115 0.162c-0.117 0.017-0.214 0.099-0.251 0.212s-0.006 0.236 0.079 0.319l0.807 0.786-0.19 1.11c-0.020 0.117 0.028 0.235 0.123 0.304 0.097 0.070 0.223 0.079 0.328 0.024l0.997-0.524 0.997 0.524c0.046 0.024 0.095 0.036 0.145 0.036 0.064 0 0.129-0.020 0.183-0.059 0.096-0.070 0.144-0.188 0.123-0.304l-0.19-1.11 0.807-0.786c0.085-0.083 0.115-0.206 0.079-0.319zM43.882 10.080c-0.073 0.071-0.107 0.175-0.089 0.275l0.111 0.65-0.583-0.307c-0.045-0.024-0.095-0.036-0.145-0.036s-0.099 0.012-0.145 0.036l-0.583 0.307 0.111-0.65c0.018-0.101-0.016-0.204-0.089-0.275l-0.473-0.46 0.653-0.095c0.101-0.015 0.189-0.078 0.234-0.17l0.292-0.591 0.292 0.591c0.046 0.092 0.133 0.156 0.234 0.17l0.653 0.095-0.472 0.46z"></path>
<path fill="#2196f3" style="fill: var(--color3, #2196f3)" d="M41.911 18.638h-0.622v0.622h0.622v-0.622z"></path>
<path fill="#2196f3" style="fill: var(--color3, #2196f3)" d="M41.911 19.882h-0.622v0.622h0.622v-0.622z"></path>
<path fill="#2196f3" style="fill: var(--color3, #2196f3)" d="M42.533 19.26h-0.622v0.622h0.622v-0.622z"></path>
<path fill="#2196f3" style="fill: var(--color3, #2196f3)" d="M41.289 19.26h-0.622v0.622h0.622v-0.622z"></path>
<path fill="#2196f3" style="fill: var(--color3, #2196f3)" d="M39.733 22.060h-0.622v0.622h0.622v-0.622z"></path>
<path fill="#2196f3" style="fill: var(--color3, #2196f3)" d="M39.733 23.305h-0.622v0.622h0.622v-0.622z"></path>
<path fill="#2196f3" style="fill: var(--color3, #2196f3)" d="M40.356 22.682h-0.622v0.622h0.622v-0.622z"></path>
<path fill="#2196f3" style="fill: var(--color3, #2196f3)" d="M39.111 22.682h-0.622v0.622h0.622v-0.622z"></path>
<path fill="#2196f3" style="fill: var(--color3, #2196f3)" d="M36 20.816h-0.622v0.622h0.622v-0.622z"></path>
<path fill="#2196f3" style="fill: var(--color3, #2196f3)" d="M36 22.060h-0.622v0.622h0.622v-0.622z"></path>
<path fill="#2196f3" style="fill: var(--color3, #2196f3)" d="M36.622 21.438h-0.622v0.622h0.622v-0.622z"></path>
<path fill="#2196f3" style="fill: var(--color3, #2196f3)" d="M35.378 21.438h-0.622v0.622h0.622v-0.622z"></path>
<path fill="#2196f3" style="fill: var(--color3, #2196f3)" d="M30.089 10.238h-0.622v0.622h0.622v-0.622z"></path>
<path fill="#2196f3" style="fill: var(--color3, #2196f3)" d="M30.089 11.482h-0.622v0.622h0.622v-0.622z"></path>
<path fill="#2196f3" style="fill: var(--color3, #2196f3)" d="M30.711 10.86h-0.622v0.622h0.622v-0.622z"></path>
<path fill="#2196f3" style="fill: var(--color3, #2196f3)" d="M29.467 10.86h-0.622v0.622h0.622v-0.622z"></path>
<path fill="#212121" style="fill: var(--color8, #212121)" d="M41.084 14.926c-0.168-0.226-0.414-0.372-0.693-0.411-0.281-0.040-0.558 0.034-0.782 0.205l-0.73 0.56-1.107 0.827-0.792-0.316c1.413-0.634 2.4-2.046 2.4-3.687 0-2.23-1.822-4.044-4.061-4.044s-4.061 1.814-4.061 4.044c0 0.808 0.242 1.56 0.653 2.192l-1.612-0.014c-0.001 0-0.002 0-0.003 0-0.005 0-0.009 0.002-0.014 0.003-0.031 0.001-0.061 0.007-0.091 0.018-0.007 0.003-0.015 0.004-0.022 0.008-0.004 0.002-0.007 0.002-0.011 0.004l-1.886 0.931c-0 0-0.001 0-0.001 0l-1.104 0.531c-0.012 0.005-0.025 0.012-0.037 0.021-0.44 0.293-0.59 0.869-0.349 1.339 0.129 0.25 0.347 0.434 0.616 0.519 0.104 0.032 0.209 0.048 0.314 0.048 0.169 0 0.337-0.041 0.49-0.123l0.81-0.431 1.321-0.682 0.791-0.005-3.174 3.159c-0 0-0.001 0-0.001 0.001l-0.781 0.778c-0.184 0.184-0.286 0.427-0.286 0.687s0.102 0.504 0.286 0.688c0.19 0.189 0.439 0.283 0.688 0.283s0.498-0.095 0.689-0.283l0.767-0.764 1.015-0.758 0.525 0.523-1.027 1.023c-0.001 0-0.001 0-0.001 0.001l-0.781 0.778c-0.185 0.184-0.286 0.427-0.286 0.687s0.102 0.504 0.286 0.688c0.189 0.189 0.439 0.283 0.688 0.283s0.499-0.095 0.689-0.283l2.031-2.022c0-0 0-0.001 0.001-0.001l0.589-0.583-0.002-0.002c0.004-0.004 0.009-0.005 0.013-0.009l3.013-3.301 2.025 0.288c0.015 0.002 0.029 0.003 0.044 0.003 0.038 0 0.074-0.009 0.109-0.022 0.010-0.004 0.019-0.009 0.029-0.014 0.011-0.006 0.023-0.009 0.034-0.016l1.874-1.244c0.007-0.005 0.011-0.012 0.017-0.017 0.007-0.006 0.017-0.008 0.024-0.015l0.742-0.695c0.386-0.362 0.439-0.954 0.124-1.378zM27.909 17.033c-0.101 0.054-0.216 0.065-0.326 0.030s-0.197-0.108-0.249-0.209c-0.094-0.183-0.039-0.406 0.125-0.526l0.766-0.369 0.185 0.539 0.077 0.226-0.579 0.308zM29.949 15.966l-0.903 0.467-0.149-0.436-0.107-0.313 1.182-0.584-0.023 0.866zM38.757 12.104c0 0.536-0.128 1.041-0.349 1.493l-2.439-1.108c-0.025-0.334-0.199-0.627-0.46-0.81l0.854-2.835c1.387 0.441 2.394 1.735 2.394 3.26zM31.881 12.104c0-1.887 1.542-3.422 3.438-3.422 0.147 0 0.292 0.012 0.435 0.030l-0.835 2.773c-0.011-0-0.022-0.003-0.033-0.003-0.602 0-1.093 0.488-1.093 1.089s0.49 1.089 1.093 1.089c0.405 0 0.755-0.224 0.944-0.551l2.253 1.024c-0.627 0.844-1.63 1.394-2.763 1.394-1.896 0-3.438-1.535-3.438-3.422zM35.355 12.571c0 0.257-0.211 0.467-0.47 0.467s-0.47-0.209-0.47-0.467 0.211-0.467 0.47-0.467c0.259 0 0.47 0.209 0.47 0.467zM28.105 21.335c-0.138 0.137-0.361 0.136-0.498 0-0.066-0.066-0.103-0.154-0.103-0.247s0.036-0.18 0.103-0.246l0.561-0.559 0.497 0.494-0.559 0.557zM29.979 23.513c-0.138 0.137-0.361 0.137-0.499 0-0.066-0.066-0.103-0.154-0.103-0.247s0.036-0.18 0.103-0.246l0.562-0.559 0.497 0.494-0.56 0.557zM32.010 21.49c-0 0-0.001 0-0.001 0.001l-1.030 1.027-0.497-0.494 1.029-1.024c0 0 0 0 0-0s0.001-0 0.001-0.001c0.023-0.023 0.038-0.051 0.052-0.079 0.004-0.008 0.012-0.015 0.015-0.023 0.010-0.024 0.011-0.050 0.015-0.075 0.002-0.014 0.008-0.028 0.008-0.042 0-0.021-0.007-0.041-0.012-0.062-0.004-0.019-0.004-0.038-0.011-0.056-0.012-0.029-0.032-0.055-0.053-0.080-0.006-0.007-0.008-0.016-0.015-0.022 0 0 0 0-0.001 0s-0-0.001-0.001-0.001l-0.937-0.933c-0.010-0.010-0.023-0.014-0.034-0.022-0.017-0.013-0.033-0.025-0.051-0.034s-0.036-0.014-0.055-0.019c-0.020-0.006-0.039-0.010-0.060-0.012-0.019-0.001-0.037 0.001-0.056 0.003-0.021 0.002-0.040 0.005-0.061 0.012s-0.037 0.016-0.055 0.026c-0.012 0.007-0.025 0.009-0.035 0.017l-1.035 0.772-0.525-0.523 1.399-1.392 2.543 2.502-0.541 0.536zM35.988 17.397c-0.009-0.001-0.017 0.002-0.026 0.002-0.023-0.001-0.044 0-0.067 0.004-0.018 0.003-0.034 0.007-0.051 0.012-0.020 0.007-0.038 0.016-0.056 0.027s-0.033 0.022-0.049 0.036c-0.007 0.006-0.017 0.010-0.023 0.017l-2.741 3.002-2.525-2.483 1.653-1.644c0.122-0.121 0.122-0.318 0.001-0.44-0.061-0.061-0.142-0.091-0.222-0.091v-0l-1.294 0.008 0.016-0.938 1.811 0.016c0.738 0.755 1.767 1.225 2.906 1.225 0.255 0 0.504-0.026 0.746-0.072 0.023 0.019 0.046 0.038 0.075 0.049l1.406 0.56 0.089 0.442 0.104 0.516-1.752-0.249zM38.345 17.5l-0.182-0.909 0.844-0.63 0.552 0.733-1.213 0.806zM40.535 15.849l-0.489 0.458-0.543-0.721 0.485-0.372c0.091-0.070 0.205-0.098 0.317-0.083 0.113 0.016 0.212 0.075 0.28 0.166 0.126 0.17 0.105 0.408-0.050 0.553z"></path>
<path fill="#212121" style="fill: var(--color8, #212121)" d="M34.601 17.484l-1.25-1.244c-0.121-0.121-0.318-0.121-0.439 0l-1.25 1.244c-0.058 0.059-0.091 0.138-0.091 0.221s0.033 0.162 0.091 0.221l1.25 1.244c0.061 0.060 0.14 0.091 0.219 0.091s0.159-0.030 0.219-0.091l1.25-1.244c0.058-0.058 0.092-0.138 0.092-0.221s-0.033-0.162-0.092-0.221zM33.132 18.51l-0.809-0.805 0.809-0.805 0.809 0.805-0.809 0.805z"></path>
<path fill="#212121" style="fill: var(--color8, #212121)" d="M36.679 9.625l-0.15 0.604c0.041 0.010 1.014 0.264 1.014 1.254h0.622c0-1.177-0.972-1.73-1.486-1.858z"></path>
<path fill="#212121" style="fill: var(--color8, #212121)" d="M38.165 12.104h-0.622v0.622h0.622v-0.622z"></path>
</symbol>
<symbol id="icon-Group-3" viewBox="0 0 72 32">
<path fill="#f5f4fa" style="fill: var(--color7, #f5f4fa)" d="M1.067 0h69.867c0.589 0 1.067 0.478 1.067 1.067v29.867c0 0.589-0.478 1.067-1.067 1.067h-69.867c-0.589 0-1.067-0.478-1.067-1.067v-29.867c0-0.589 0.478-1.067 1.067-1.067z"></path>
<path fill="#2196f3" style="fill: var(--color3, #2196f3)" d="M35.373 15.396h0.622v2.799h-0.622v-2.799z"></path>
<path fill="#2196f3" style="fill: var(--color3, #2196f3)" d="M37.861 16.64h0.622v1.555h-0.622v-1.555z"></path>
<path fill="#2196f3" style="fill: var(--color3, #2196f3)" d="M32.886 17.573h0.622v0.622h-0.622v-0.622z"></path>
<path fill="#2196f3" style="fill: var(--color3, #2196f3)" d="M31.020 17.262h0.622v0.933h-0.622v-0.933z"></path>
<path fill="#212121" style="fill: var(--color8, #212121)" d="M27.599 23.17h14.926c0.515 0 0.933-0.418 0.933-0.933v-1.244c0-0.515-0.418-0.933-0.933-0.933h-0.311v-7.754l1.766-1.673c0.41 0.202 0.906 0.079 1.174-0.291s0.231-0.88-0.089-1.207-0.829-0.375-1.205-0.115c-0.376 0.26-0.51 0.754-0.317 1.168l-1.331 1.262v-0.717c0-0.515-0.418-0.933-0.933-0.933h-12.438c-0.515 0-0.933 0.418-0.933 0.933v9.328h-0.311c-0.515 0-0.933 0.418-0.933 0.933v1.244c0 0.515 0.418 0.933 0.933 0.933zM44.391 9.488c0.172 0 0.311 0.139 0.311 0.311s-0.139 0.311-0.311 0.311c-0.172 0-0.311-0.139-0.311-0.311s0.139-0.311 0.311-0.311zM28.532 10.732c0-0.172 0.139-0.311 0.311-0.311h12.438c0.172 0 0.311 0.139 0.311 0.311v1.306l-0.622 0.591v-1.275c0-0.172-0.139-0.311-0.311-0.311h-11.194c-0.172 0-0.311 0.139-0.311 0.311v7.774c0 0.172 0.139 0.311 0.311 0.311h11.194c0.171 0 0.311-0.139 0.311-0.311v-5.643l0.622-0.589v7.165h-13.060v-9.328zM31.331 14.774c-0.421-0.001-0.79 0.279-0.902 0.685s0.061 0.836 0.423 1.050c0.362 0.215 0.822 0.161 1.125-0.132l1.081 0.542c0.126 0.063 0.278 0.033 0.371-0.072l2.298-2.585 2.259 1.692c0.121 0.091 0.29 0.081 0.4-0.023l1.963-1.859v4.743h-10.572v-7.152h10.572v1.552l-2.2 2.083-2.278-1.707c-0.129-0.097-0.311-0.079-0.419 0.042l-2.329 2.621-0.871-0.435c0.006-0.037 0.010-0.075 0.012-0.113 0-0.515-0.418-0.933-0.933-0.933zM31.642 15.707c0 0.172-0.139 0.311-0.311 0.311s-0.311-0.139-0.311-0.311c0-0.172 0.139-0.311 0.311-0.311s0.311 0.139 0.311 0.311zM33.507 20.682h3.11v0.311c0 0.172-0.139 0.311-0.311 0.311h-2.488c-0.172 0-0.311-0.139-0.311-0.311v-0.311zM27.289 20.993c0-0.172 0.139-0.311 0.311-0.311h5.286v0.311c0 0.515 0.418 0.933 0.933 0.933h2.488c0.515 0 0.933-0.418 0.933-0.933v-0.311h5.286c0.172 0 0.311 0.139 0.311 0.311v1.244c0 0.172-0.139 0.311-0.311 0.311h-14.926c-0.172 0-0.311-0.139-0.311-0.311v-1.244z"></path>
</symbol>
<symbol id="icon-Group-2" viewBox="0 0 72 32">
<path fill="#f5f4fa" style="fill: var(--color7, #f5f4fa)" d="M1.067 0h69.867c0.589 0 1.067 0.478 1.067 1.067v29.867c0 0.589-0.478 1.067-1.067 1.067h-69.867c-0.589 0-1.067-0.478-1.067-1.067v-29.867c0-0.589 0.478-1.067 1.067-1.067z"></path>
<path fill="#212121" style="fill: var(--color8, #212121)" d="M44.923 15.592c-0.001-4.931-3.999-8.927-8.93-8.926s-8.927 3.999-8.926 8.93c0.001 3.884 2.512 7.321 6.212 8.503 0.035 0.011 0.072 0.017 0.109 0.017 0.070-0 0.139-0.019 0.2-0.055 0.079-0.047 0.138-0.121 0.165-0.208l2.255-7.146c0.616-0.003 1.113-0.505 1.11-1.122s-0.505-1.113-1.122-1.11c-0.166 0.001-0.329 0.039-0.478 0.112l-2.978-2.979c-0.148-0.143-0.383-0.139-0.526 0.009-0.139 0.144-0.139 0.373 0 0.517l2.977 2.98c-0.228 0.466-0.098 1.029 0.313 1.347l-2.148 6.809c-4.245-1.564-6.419-6.273-4.855-10.518s6.273-6.419 10.519-4.855c4.245 1.564 6.419 6.273 4.855 10.518-0.764 2.074-2.334 3.752-4.353 4.651l-0.232-1.093c-0.042-0.201-0.24-0.329-0.441-0.287-0.063 0.014-0.122 0.043-0.171 0.086l-2.238 1.998c-0.154 0.137-0.167 0.372-0.031 0.525 0.045 0.050 0.102 0.087 0.165 0.107l2.858 0.912c0.195 0.063 0.405-0.045 0.468-0.24 0.020-0.062 0.023-0.128 0.010-0.191l-0.228-1.073c3.304-1.393 5.449-4.633 5.442-8.219zM35.995 15.22c0.205 0 0.372 0.167 0.372 0.372s-0.167 0.372-0.372 0.372c-0.206 0-0.372-0.166-0.372-0.372s0.166-0.372 0.372-0.372zM37.221 23.891l1.274-1.136 0.352 1.657-1.626-0.52z"></path>
<path fill="#2196f3" style="fill: var(--color3, #2196f3)" d="M35.623 8.525v0.744c0 0.206 0.166 0.372 0.372 0.372s0.372-0.166 0.372-0.372v-0.744c0-0.205-0.167-0.372-0.372-0.372s-0.372 0.167-0.372 0.372z"></path>
<path fill="#2196f3" style="fill: var(--color3, #2196f3)" d="M28.928 15.22c-0.206 0-0.372 0.167-0.372 0.372s0.166 0.372 0.372 0.372h0.744c0.205 0 0.372-0.166 0.372-0.372s-0.167-0.372-0.372-0.372h-0.744z"></path>
<path fill="#2196f3" style="fill: var(--color3, #2196f3)" d="M43.063 15.964c0.205 0 0.372-0.166 0.372-0.372s-0.166-0.372-0.372-0.372h-0.744c-0.206 0-0.372 0.167-0.372 0.372s0.166 0.372 0.372 0.372h0.744z"></path>
</symbol>
<symbol id="icon-Group-1-1" viewBox="0 0 72 32">
<path fill="#f5f4fa" style="fill: var(--color7, #f5f4fa)" d="M1.067 0h69.867c0.589 0 1.067 0.478 1.067 1.067v29.867c0 0.589-0.478 1.067-1.067 1.067h-69.867c-0.589 0-1.067-0.478-1.067-1.067v-29.867c0-0.589 0.478-1.067 1.067-1.067z"></path>
<path fill="#212121" style="fill: var(--color8, #212121)" d="M44.618 19.557l-4.925-4.961 0.547-2.692c0.141 0.055 0.291 0.084 0.442 0.085h0.004c0.695 0.008 1.266-0.549 1.274-1.244s-0.549-1.266-1.245-1.274c-0.695-0.008-1.266 0.549-1.274 1.244-0.002 0.149 0.023 0.297 0.073 0.437l-2.893 0.353-4.719-4.744c-0.058-0.059-0.137-0.093-0.22-0.093-0.082 0-0.16 0.033-0.218 0.091l-0.882 0.877c-0.122 0.122-0.122 0.318 0 0.44l0.475 0.482c-1.839 3.382-1.242 7.57 1.47 10.303 0.025 0.024 0.054 0.043 0.085 0.057-0.020 0.105-0.030 0.212-0.030 0.319v3.609h-3.733c-0.859 0.001-1.555 0.697-1.556 1.556v0.622c0 0.172 0.139 0.311 0.311 0.311h14.311c0.172 0 0.311-0.139 0.311-0.311v-0.622c-0.001-0.859-0.697-1.555-1.555-1.556h-3.733v-1.599c0.585 0.123 1.181 0.185 1.778 0.187 1.434-0.002 2.845-0.359 4.107-1.040l0.477 0.48c0.058 0.059 0.137 0.093 0.22 0.093 0.082-0 0.16-0.033 0.218-0.091l0.882-0.877c0.122-0.122 0.122-0.318 0-0.44zM40.247 10.303c0.243-0.242 0.638-0.241 0.88 0.002s0.241 0.638-0.002 0.88c-0.117 0.116-0.274 0.181-0.439 0.181h-0.002c-0.343-0.002-0.621-0.282-0.619-0.625 0.001-0.165 0.067-0.322 0.183-0.438h-0.001zM39.514 12.347l-0.349 1.718-0.686-0.69 1.035-1.029zM39.161 11.821l-1.12 1.113-0.866-0.871 1.986-0.242zM40.669 23.467c0.515 0 0.933 0.418 0.933 0.933v0.311h-13.689v-0.311c0-0.515 0.418-0.933 0.933-0.933h11.822zM36.314 22.222v0.622h-3.111v-0.622h3.111zM33.202 21.6v-2.364c0-0.755 0.698-1.369 1.555-1.369s1.556 0.614 1.556 1.369v2.364h-3.111zM36.936 20.611v-1.375c0-1.098-0.977-1.991-2.178-1.991-0.776-0.012-1.502 0.383-1.914 1.042-2.367-2.493-2.9-6.21-1.329-9.268l10.851 10.913c-1.675 0.852-3.596 1.092-5.43 0.679zM43.521 20.212l-12.283-12.355 0.44-0.439 4.629 4.655c0.002 0 0.003 0.004 0.006 0.006l7.65 7.695-0.441 0.439z"></path>
<path fill="#2196f3" style="fill: var(--color3, #2196f3)" d="M34.761 18.489h-0.003c-0.515-0.001-0.934 0.416-0.935 0.932s0.417 0.934 0.932 0.935h0.003c0.515 0.001 0.934-0.416 0.935-0.932s-0.417-0.934-0.932-0.935zM34.978 19.643c-0.058 0.058-0.138 0.091-0.221 0.091-0.172-0.001-0.31-0.141-0.309-0.313 0-0.082 0.033-0.161 0.092-0.219s0.136-0.090 0.218-0.091c0.172 0.001 0.31 0.141 0.31 0.313-0.001 0.082-0.033 0.161-0.092 0.219h0.003z"></path>
</symbol>
<symbol id="icon-Vector" viewBox="0 0 20 32">
<path fill="#757575" style="fill: var(--color4, #757575)" d="M17 0h-14c-1.654 0-3 1.346-3 3v26c0 1.654 1.346 3 3 3h14c1.654 0 3-1.346 3-3v-26c0-1.654-1.346-3-3-3zM3 2h14c0.552 0 1 0.448 1 1v21h-16v-21c0-0.552 0.448-1 1-1zM17 30h-14c-0.552 0-1-0.448-1-1v-3h16v3c0 0.552-0.448 1-1 1z"></path>
</symbol>
<symbol id="icon-linkedin" viewBox="0 0 32 32">
<path fill="#fff" style="fill: var(--color1, #fff)" opacity="0.1" d="M32 16c0 4.418-1.791 8.418-4.686 11.314s-6.895 4.686-11.314 4.686-8.418-1.791-11.314-4.686c-2.895-2.895-4.686-6.895-4.686-11.314s1.791-8.418 4.686-11.314c2.895-2.895 6.895-4.686 11.314-4.686s8.418 1.791 11.314 4.686c2.895 2.895 4.686 6.895 4.686 11.314z"></path>
<path fill="#fff" style="fill: var(--color1, #fff)" d="M23.269 23.273v-0.001h0.004v-5.335c0-2.61-0.562-4.62-3.613-4.62-1.467 0-2.451 0.805-2.853 1.568h-0.042v-1.324h-2.893v9.711h3.012v-4.809c0-1.266 0.24-2.49 1.808-2.49 1.545 0 1.568 1.445 1.568 2.572v4.728h3.009z"></path>
<path fill="#fff" style="fill: var(--color1, #fff)" d="M8.967 13.562h3.016v9.711h-3.016v-9.711z"></path>
<path fill="#fff" style="fill: var(--color1, #fff)" d="M10.474 8.727c-0.964 0-1.747 0.782-1.747 1.747s0.782 1.763 1.747 1.763c0.964 0 1.747-0.799 1.747-1.763s-0.783-1.747-1.747-1.747v0z"></path>
</symbol>
<symbol id="icon-facebook" viewBox="0 0 32 32">
<path fill="#fff" style="fill: var(--color1, #fff)"  opacity="0.1" d="M32 16c0 4.418-1.791 8.418-4.686 11.314s-6.895 4.686-11.314 4.686-8.418-1.791-11.314-4.686c-2.895-2.895-4.686-6.895-4.686-11.314s1.791-8.418 4.686-11.314c2.895-2.895 6.895-4.686 11.314-4.686s8.418 1.791 11.314 4.686c2.895 2.895 4.686 6.895 4.686 11.314z"></path>
<path fill="#fff" style="fill: var(--color1, #fff)"  d="M18.422 11.142h1.328v-2.313c-0.229-0.031-1.017-0.102-1.935-0.102-1.915 0-3.226 1.204-3.226 3.418v2.037h-2.113v2.585h2.113v6.505h2.59v-6.505h2.027l0.322-2.585h-2.35v-1.781c0.001-0.747 0.202-1.259 1.243-1.259v0z"></path>
</symbol>
<symbol id="icon-twitter" viewBox="0 0 32 32">
<path fill="#2196f3" style="fill: var(--color2, #2196f3)" d="M32 16c0 4.418-1.791 8.418-4.686 11.314s-6.895 4.686-11.314 4.686-8.418-1.791-11.314-4.686c-2.895-2.895-4.686-6.895-4.686-11.314s1.791-8.418 4.686-11.314c2.895-2.895 6.895-4.686 11.314-4.686s8.418 1.791 11.314 4.686c2.895 2.895 4.686 6.895 4.686 11.314z"></path>
<path fill="#fff" style="fill: var(--color1, #fff)" d="M23.273 11.49c-0.541 0.237-1.117 0.394-1.718 0.471 0.618-0.369 1.090-0.949 1.312-1.648-0.576 0.344-1.213 0.586-1.891 0.722-0.547-0.583-1.327-0.944-2.178-0.944-1.651 0-2.98 1.34-2.98 2.983 0 0.236 0.020 0.464 0.069 0.68-2.479-0.121-4.673-1.309-6.146-3.119-0.257 0.446-0.408 0.957-0.408 1.507 0 1.033 0.532 1.948 1.325 2.478-0.479-0.009-0.949-0.148-1.347-0.367 0 0.009 0 0.021 0 0.033 0 1.449 1.034 2.653 2.389 2.93-0.243 0.066-0.507 0.098-0.782 0.098-0.191 0-0.384-0.011-0.565-0.051 0.386 1.181 1.483 2.049 2.786 2.077-1.015 0.794-2.303 1.272-3.697 1.272-0.245 0-0.479-0.011-0.714-0.041 1.321 0.852 2.886 1.338 4.575 1.338 5.487 0 8.487-4.545 8.487-8.485 0-0.132-0.005-0.259-0.011-0.385 0.592-0.42 1.089-0.944 1.495-1.548z"></path>
</symbol>
<symbol id="icon-instagram" viewBox="0 0 32 32">
<path fill="#fff" style="fill: var(--color1, #fff)" opacity="0.1" d="M32 16c0 4.418-1.791 8.418-4.686 11.314s-6.895 4.686-11.314 4.686-8.418-1.791-11.314-4.686c-2.895-2.895-4.686-6.895-4.686-11.314s1.791-8.418 4.686-11.314c2.895-2.895 6.895-4.686 11.314-4.686s8.418 1.791 11.314 4.686c2.895 2.895 4.686 6.895 4.686 11.314z"></path>
<path fill="#fff" style="fill: var(--color1, #fff)" d="M23.258 13.004c-0.034-0.773-0.159-1.304-0.338-1.765-0.185-0.489-0.469-0.926-0.841-1.29-0.364-0.369-0.804-0.656-1.287-0.838-0.463-0.179-0.992-0.304-1.764-0.338-0.779-0.037-1.026-0.046-3.001-0.046s-2.222 0.009-2.998 0.043c-0.773 0.034-1.304 0.159-1.764 0.338-0.489 0.185-0.926 0.469-1.29 0.841-0.369 0.364-0.656 0.804-0.838 1.287-0.179 0.463-0.304 0.992-0.338 1.764-0.037 0.779-0.045 1.026-0.045 3.001s0.008 2.222 0.043 2.998c0.034 0.773 0.159 1.304 0.338 1.765 0.185 0.489 0.472 0.926 0.841 1.29 0.364 0.369 0.804 0.656 1.287 0.838 0.463 0.179 0.992 0.304 1.765 0.338 0.776 0.034 1.023 0.043 2.998 0.043s2.222-0.008 2.998-0.043c0.773-0.034 1.304-0.159 1.764-0.338 0.978-0.378 1.75-1.151 2.128-2.128 0.179-0.463 0.304-0.992 0.338-1.765 0.034-0.776 0.043-1.023 0.043-2.998s-0.003-2.222-0.037-2.998zM21.949 18.942c-0.031 0.71-0.151 1.094-0.25 1.35-0.244 0.634-0.747 1.137-1.381 1.381-0.256 0.099-0.642 0.219-1.35 0.25-0.767 0.034-0.997 0.043-2.938 0.043s-2.174-0.008-2.938-0.043c-0.71-0.031-1.094-0.15-1.35-0.25-0.315-0.116-0.602-0.301-0.835-0.543-0.242-0.236-0.426-0.52-0.543-0.835-0.099-0.256-0.219-0.642-0.25-1.35-0.034-0.767-0.043-0.997-0.043-2.938s0.008-2.174 0.043-2.938c0.031-0.71 0.151-1.094 0.25-1.35 0.117-0.315 0.301-0.602 0.546-0.835 0.236-0.242 0.52-0.426 0.835-0.543 0.256-0.099 0.642-0.219 1.35-0.25 0.767-0.034 0.997-0.043 2.938-0.043 1.944 0 2.174 0.008 2.938 0.043 0.71 0.031 1.094 0.151 1.35 0.25 0.315 0.116 0.602 0.301 0.835 0.543 0.241 0.236 0.426 0.52 0.543 0.835 0.099 0.256 0.219 0.642 0.25 1.35 0.034 0.767 0.043 0.997 0.043 2.938s-0.009 2.168-0.043 2.935z"></path>
<path fill="#fff" style="fill: var(--color1, #fff)" d="M16.027 12.265c-2.063 0-3.736 1.674-3.736 3.737s1.674 3.736 3.736 3.736c2.063 0 3.737-1.674 3.737-3.736s-1.674-3.737-3.737-3.737zM16.027 18.425c-1.338 0-2.424-1.085-2.424-2.424s1.086-2.424 2.424-2.424c1.338 0 2.424 1.085 2.424 2.424s-1.085 2.424-2.424 2.424v0z"></path>
<path fill="#fff" style="fill: var(--color1, #fff)" d="M20.784 12.117c0 0.482-0.391 0.872-0.872 0.872s-0.872-0.391-0.872-0.872c0-0.482 0.391-0.872 0.872-0.872s0.872 0.39 0.872 0.872v0z"></path>
</symbol>
<symbol id="icon-twitter-2" viewBox="0 0 32 32">
<path fill="#fff" style="fill: var(--color1, #fff)" opacity="0.1" d="M32 16c0 4.418-1.791 8.418-4.686 11.314s-6.895 4.686-11.314 4.686-8.418-1.791-11.314-4.686c-2.895-2.895-4.686-6.895-4.686-11.314s1.791-8.418 4.686-11.314c2.895-2.895 6.895-4.686 11.314-4.686s8.418 1.791 11.314 4.686c2.895 2.895 4.686 6.895 4.686 11.314z"></path>
<path fill="#fff" style="fill: var(--color1, #fff)" d="M23.273 11.49c-0.541 0.237-1.117 0.394-1.718 0.471 0.618-0.369 1.090-0.949 1.312-1.648-0.576 0.344-1.213 0.586-1.891 0.722-0.547-0.583-1.327-0.944-2.178-0.944-1.651 0-2.98 1.34-2.98 2.983 0 0.236 0.020 0.464 0.069 0.68-2.479-0.121-4.673-1.309-6.146-3.119-0.257 0.446-0.408 0.957-0.408 1.507 0 1.033 0.532 1.948 1.325 2.478-0.479-0.009-0.949-0.148-1.347-0.367 0 0.009 0 0.021 0 0.033 0 1.449 1.034 2.653 2.389 2.93-0.243 0.066-0.507 0.098-0.782 0.098-0.191 0-0.384-0.011-0.565-0.051 0.386 1.181 1.483 2.049 2.786 2.077-1.015 0.794-2.303 1.272-3.697 1.272-0.245 0-0.479-0.011-0.714-0.041 1.321 0.852 2.886 1.338 4.575 1.338 5.487 0 8.487-4.545 8.487-8.485 0-0.132-0.005-0.259-0.011-0.385 0.592-0.42 1.089-0.944 1.495-1.548z"></path>
</symbol>
</defs>
</svg>
</defs>
</svg>
